<?xml version="1.0" encoding="UTF-8"?>
<svg width="22px" height="19px" viewBox="0 0 22 19" version="1.1" xmlns="http://www.w3.org/2000/svg" xmlns:xlink="http://www.w3.org/1999/xlink">
    <!-- Generator: Sketch 60 (88103) - https://sketch.com -->
    <title>群组</title>
    <desc>Created with Sketch.</desc>
    <g id="页面-1" stroke="none" stroke-width="1" fill="none" fill-rule="evenodd">
        <g id="1155-sell详情页" transform="translate(-723.000000, -176.000000)" fill="#AEAEAE" fill-rule="nonzero">
            <g id="群组" transform="translate(723.000000, 176.000000)">
                <path d="M8.75979615,0 C11.3828653,0 13.5943023,1.69095196 14.265964,3.99674968 L14.2659639,3.9967497 C14.5483205,3.94658874 14.8348599,3.92140641 15.1219911,3.92151835 C17.6815824,3.92151835 19.7597958,5.89802277 19.7597958,8.34011127 C19.7597958,9.78992416 19.0273281,11.0756309 17.8965381,11.8811012 C20.2858979,12.9648218 21.9541771,15.3702073 21.999076,18.1662339 L22,18.2819874 L22,19 L0.746727057,19 C0.458654421,19 0.208663509,18.8431479 0.0841300275,18.6133945 L0.0574353631,18.6133945 C0.0574353631,18.5954273 0.0574853064,18.5774842 0.0576101645,18.5595411 L0.0578598807,18.5596132 L0.0578598977,18.5596132 C0.0195411928,18.4717023 0,18.3773126 0,18.2819874 C0,18.1640481 0.0295670495,18.0527624 0.0819575134,17.9545917 L0.0817077972,17.9544956 C0.348279867,14.349684 2.78426164,11.3549861 6.07599593,10.2966309 L6.07599593,10.2968951 C4.27247045,9.37752091 3.04439103,7.5603907 3.04439103,5.4680127 C3.04439103,2.44718084 5.60423204,0 8.75979608,0 L8.75979615,0 Z M15.063183,12.7034576 C16.2603226,14.0157788 17.0640093,15.6994766 17.2854077,17.5638786 L20.4616732,17.5639507 L20.4604246,17.5530455 C20.1348446,15.0011365 18.1232556,12.9996751 15.6178527,12.733579 C15.4798595,12.7477509 15.3400184,12.7559418 15.1986541,12.7581277 L15.1219912,12.7587282 L15.1219912,12.7040822 L15.063183,12.7034576 Z M15.1220162,5.35754362 C14.902141,5.35754362 14.685662,5.37884956 14.4747767,5.42066877 L14.4752012,5.46801264 C14.4752012,7.57780531 13.2265701,9.40776233 11.3984476,10.3196662 L11.3984476,10.319402 C12.4749493,10.6757661 13.4582319,11.2397611 14.3018482,11.9644273 C14.3131853,11.5777016 14.6429606,11.2674324 15.0481251,11.2674324 C15.2325156,11.2674324 15.415208,11.2746625 15.5959026,11.2888584 C17.1089083,11.072196 18.266318,9.83306448 18.266318,8.34013527 C18.266318,6.69467762 16.8603907,5.35754362 15.1220162,5.35754362 L15.1220162,5.35754362 Z" id="形状"></path>
            </g>
        </g>
    </g>
</svg>