<?xml version="1.0" encoding="UTF-8"?>
<svg width="21px" height="20px" viewBox="0 0 21 20" version="1.1" xmlns="http://www.w3.org/2000/svg" xmlns:xlink="http://www.w3.org/1999/xlink">
    <!-- Generator: Sketch 60 (88103) - https://sketch.com -->
    <title>列表</title>
    <desc>Created with Sketch.</desc>
    <g id="页面-1" stroke="none" stroke-width="1" fill="none" fill-rule="evenodd">
        <g id="1155-buy详情" transform="translate(-609.000000, -389.000000)" fill="#F9CE0D" fill-rule="nonzero">
            <g id="列表" transform="translate(609.000000, 389.000000)">
                <path d="M2.86911596,0 C3.31917415,0 3.70091848,0.156959853 4.01435132,0.470879802 C4.32778416,0.784800476 4.48450057,1.17306817 4.48450057,1.63568773 L4.48450057,2.89962825 C4.48450057,3.36224781 4.32778416,3.75464684 4.01435132,4.07682776 C3.70091848,4.39900867 3.31917415,4.56009913 2.86911596,4.56009913 L1.5912744,4.56009913 C1.15729047,4.56009913 0.78358209,4.39900867 0.470149254,4.07682776 C0.156716418,3.75464684 2.66453526e-15,3.36224781 2.66453526e-15,2.89962825 L2.66453526e-15,1.63568773 C2.66453526e-15,1.17306817 0.156716418,0.784800476 0.470149254,0.470879802 C0.78358209,0.156959127 1.15729047,0 1.5912744,0 L2.86911596,0 Z M19.4087256,0 C19.8427095,0 20.2164179,0.156959853 20.5298507,0.470879802 C20.8432836,0.784800476 21,1.17306817 21,1.63568773 L21,2.89962825 C21,3.36224781 20.8432836,3.75464684 20.5298507,4.07682776 C20.2164179,4.39900867 19.8427095,4.56009913 19.4087256,4.56009913 L9.11366246,4.56009913 C8.66360427,4.56009913 8.28185993,4.39900867 7.9684271,4.07682776 C7.65499426,3.75464684 7.49827784,3.36224781 7.49827784,2.89962825 L7.49827784,1.63568773 C7.49827784,1.17306817 7.65499426,0.784800476 7.9684271,0.470879802 C8.28185993,0.156959127 8.66360427,0 9.11366246,0 L19.4087256,0 Z M2.86911596,7.70755886 C3.31917415,7.70755886 3.70091848,7.86864932 4.01435132,8.19083024 C4.32778416,8.51301115 4.48450057,8.90541018 4.48450057,9.36802974 L4.48450057,10.6319703 C4.48450057,11.0780669 4.32778416,11.4622057 4.01435132,11.7843866 C3.70091848,12.1065675 3.31917415,12.267658 2.86911596,12.267658 L1.5912744,12.267658 C1.15729047,12.267658 0.78358209,12.1065675 0.470149254,11.7843866 C0.156716418,11.4622057 0,11.0780669 0,10.6319703 L0,9.36802974 C0,8.90541018 0.156716418,8.51301115 0.470149254,8.19083024 C0.78358209,7.86864932 1.15729047,7.70755886 1.5912744,7.70755886 L2.86911596,7.70755886 Z M19.4087256,7.70755886 C19.8427095,7.70755886 20.2164179,7.86864932 20.5298507,8.19083024 C20.8432836,8.51301115 21,8.90541018 21,9.36802974 L21,10.6319703 C21,11.0780669 20.8432836,11.4622057 20.5298507,11.7843866 C20.2164179,12.1065675 19.8427095,12.267658 19.4087256,12.267658 L9.11366246,12.267658 C8.66360427,12.267658 8.28185993,12.1065675 7.9684271,11.7843866 C7.65499426,11.4622057 7.49827784,11.0780669 7.49827784,10.6319703 L7.49827784,9.36802974 C7.49827784,8.90541018 7.65499426,8.51301115 7.9684271,8.19083024 C8.28185993,7.86864932 8.66360427,7.70755886 9.11366246,7.70755886 L19.4087256,7.70755886 Z M2.86911596,15.4399009 C3.31917415,15.4399009 3.70091848,15.6009913 4.01435132,15.9231722 C4.32778416,16.2453532 4.48450057,16.6294919 4.48450057,17.0755886 L4.48450057,18.3395291 C4.48450057,18.8021487 4.32778416,19.1945477 4.01435132,19.5167286 C3.70091848,19.8389095 3.31917415,20 2.86911596,20 L1.5912744,20 C1.15729047,20 0.78358209,19.8389095 0.470149254,19.5167286 C0.156716418,19.1945477 0,18.8021487 0,18.3395291 L0,17.0755886 C0,16.6294919 0.156716418,16.2453532 0.470149254,15.9231722 C0.78358209,15.6009913 1.15729047,15.4399009 1.5912744,15.4399009 L2.86911596,15.4399009 Z M19.4087256,15.4399009 C19.8427095,15.4399009 20.2164179,15.6009913 20.5298507,15.9231722 C20.8432836,16.2453532 21,16.6294919 21,17.0755886 L21,18.3395291 C21,18.8021487 20.8432836,19.1945477 20.5298507,19.5167286 C20.2164179,19.8389095 19.8427095,20 19.4087256,20 L9.11366246,20 C8.66360427,20 8.28185993,19.8389095 7.9684271,19.5167286 C7.65499426,19.1945477 7.49827784,18.8021487 7.49827784,18.3395291 L7.49827784,17.0755886 C7.49827784,16.6294919 7.65499426,16.2453532 7.9684271,15.9231722 C8.28185993,15.6009913 8.66360427,15.4399009 9.11366246,15.4399009 L19.4087256,15.4399009 Z" id="形状"></path>
            </g>
        </g>
    </g>
</svg>