<?xml version="1.0" encoding="UTF-8"?>
<svg width="24px" height="18px" viewBox="0 0 24 18" version="1.1" xmlns="http://www.w3.org/2000/svg" xmlns:xlink="http://www.w3.org/1999/xlink">
    <!-- Generator: Sketch 60 (88103) - https://sketch.com -->
    <title>编组 2</title>
    <desc>Created with Sketch.</desc>
    <g id="页面-1" stroke="none" stroke-width="1" fill="none" fill-rule="evenodd">
        <g id="1155-sell详情页" transform="translate(-869.000000, -177.000000)" fill="#AEAEAE" fill-rule="nonzero">
            <g id="编组-2" transform="translate(869.000000, 175.870989)">
                <path d="M14.2194326,2 L14.2194326,2 C15.0785431,2 15.7749891,2.69644604 15.7749891,3.55555656 C15.7749891,3.55555656 15.7749891,3.55555656 15.7749891,3.55555656 L15.7749891,7.44444342 L15.7749891,7.44444344 C15.7749891,8.30355396 15.0785431,9 14.2194326,9 C14.2194326,9 14.2194325,9 14.2194325,9 L10.3305457,9 L10.3305456,9 C9.47143513,9 8.7749891,8.30355396 8.7749891,7.44444344 C8.7749891,7.44444342 8.7749891,7.44444342 8.7749891,7.4444434 L8.7749891,3.55555655 L8.7749891,3.55555678 C8.7749891,2.69644625 9.47143513,2 10.3305456,2 C10.3305456,2 10.3305457,2 10.3305457,2 L14.2194325,2 L14.2194326,2 Z" id="路径" transform="translate(12.274989, 5.500000) rotate(-45.000000) translate(-12.274989, -5.500000) "></path>
                <g id="持有投资" transform="translate(0.000000, 10.129011)">
                    <path d="M21.9558204,0.641100261 C21.1439938,1.11210739 18.7002214,3.13297951 17.8230288,3.23995307 C16.9543743,3.34673545 14.6025682,3.18003629 12.9303875,3.02781841 C11.0372822,2.85634325 11.77545,2.1152499 12.0750215,2.03602492 C12.3746214,1.95677449 16.0003137,1.76739677 17.2121077,1.63308144 C18.301816,1.5117157 18.1444862,0.472879649 16.9158357,0.430790054 C15.6873194,0.390411347 10.1199943,0.0263390931 8.24862769,0.147706078 C6.37557522,0.269046358 3.640475,2.6880817 3.640475,2.6880817 L3.74263995,3.07156274 L7.73139285,6.49551038 L8.26369818,6.45510622 C8.26369818,6.45510622 9.24125568,5.91146309 10.0547707,5.74798155 C10.86826,5.58452597 15.3625656,6.06184155 16.9141761,5.84344986 C18.4659132,5.62505792 22.4647377,2.39032602 23.341827,1.68495592 C23.7686116,1.34026999 24.0733363,0.84831789 23.9845663,0.715612372 C23.5577559,0.0861802447 22.481442,0.335323494 21.9558209,0.641086783 L21.9558204,0.641100261 Z M2.8353921,3.34505227 C2.4687919,3.02299348 2.05537591,3.09905151 1.80430871,3.29320624 C1.55313643,3.48580283 0.50873791,4.27056887 0.209057982,4.46957599 C-0.25286488,4.77699925 0.157222396,5.28994373 0.420019494,5.53104044 C0.682844218,5.77052834 3.50994432,8.30612346 3.9284542,8.70423253 C4.34681176,9.10227171 4.77705593,9.06018212 5.09171547,8.8045023 C5.406375,8.54879753 6.1345822,7.94367973 6.60157572,7.62808264 C7.06857182,7.31256292 7.02672083,6.95170904 6.70194425,6.66530312 C6.37716664,6.3790769 3.20357856,3.66547104 2.83538797,3.34505701 L2.8353921,3.34505227 Z" id="形状"></path>
                </g>
            </g>
        </g>
    </g>
</svg>