<?xml version="1.0" encoding="UTF-8"?>
<svg width="25px" height="25px" viewBox="0 0 25 25" version="1.1" xmlns="http://www.w3.org/2000/svg" xmlns:xlink="http://www.w3.org/1999/xlink">
    <!-- Generator: Sketch 60 (88103) - https://sketch.com -->
    <title>编组 4</title>
    <desc>Created with Sketch.</desc>
    <g id="页面-1" stroke="none" stroke-width="1" fill="none" fill-rule="evenodd">
        <g id="1155-buy详情" transform="translate(-289.000000, -619.000000)" fill="#FFFFFF">
            <g id="编组-4" transform="translate(289.000000, 619.000000)">
                <g id="视频" transform="translate(1.000000, 1.000000)" fill-opacity="0.4" fill-rule="nonzero" stroke="#FFFFFF">
                    <path d="M0,11.5 L0,11.5 C0,17.8512635 5.14871378,23 11.5,23 C17.8512635,23 23,17.8512862 23,11.5 L23,11.5 C23,5.14873653 17.8512862,0 11.5,0 C5.14873653,0 0,5.14871378 0,11.5 L0,11.5 Z" id="路径"></path>
                </g>
                <path d="M13.8944272,9.78885438 L17.2763932,16.5527864 C17.5233825,17.0467649 17.3231581,17.6474379 16.8291796,17.8944272 C16.6903242,17.9638549 16.5372111,18 16.381966,18 L9.61803399,18 C9.06574924,18 8.61803399,17.5522847 8.61803399,17 C8.61803399,16.8447549 8.65417908,16.6916418 8.7236068,16.5527864 L12.1055728,9.78885438 C12.3525621,9.29487588 12.9532351,9.09465154 13.4472136,9.34164079 C13.640741,9.43840449 13.7976635,9.59532698 13.8944272,9.78885438 Z" id="三角形" transform="translate(13.000000, 13.000000) rotate(-270.000000) translate(-13.000000, -13.000000) "></path>
            </g>
        </g>
    </g>
</svg>