<?xml version="1.0" encoding="UTF-8"?>
<svg width="19px" height="19px" viewBox="0 0 19 19" version="1.1" xmlns="http://www.w3.org/2000/svg" xmlns:xlink="http://www.w3.org/1999/xlink">
    <!-- Generator: Sketch 60 (88103) - https://sketch.com -->
    <title>全部单据</title>
    <desc>Created with Sketch.</desc>
    <g id="页面-1" stroke="none" stroke-width="1" fill="none" fill-rule="evenodd">
        <g id="1155-buy详情" transform="translate(-589.000000, -176.000000)" fill="#AEAEAE" fill-rule="nonzero">
            <g id="全部单据" transform="translate(589.000000, 176.000000)">
                <path d="M17.0998609,10.4500015 L17.0998608,10.4500015 C18.1491943,10.4500015 18.9998463,11.3006605 18.9998463,12.3500024 C18.9998463,12.3500024 18.9998463,12.3500024 18.9998463,12.3500024 L18.9998463,17.0999991 L18.9998463,17.0999991 C18.9998463,18.1493411 18.1491943,19 17.0998608,19 C17.0998608,19 17.0998608,19 17.0998608,19 L12.3499026,19 L12.3499025,19 C11.300569,19 10.449917,18.1493411 10.449917,17.0999991 C10.449917,17.0999991 10.449917,17.0999991 10.449917,17.0999991 L10.449917,12.3500024 L10.449917,12.3500027 C10.449917,11.3006608 11.300569,10.4500015 12.3499025,10.4500015 L17.0998607,10.4500015 L17.0998609,10.4500015 Z M6.64994392,10.4500015 L6.64994384,10.4500015 C7.6992773,10.4500015 8.54992935,11.3006605 8.54992935,12.3500024 C8.54992935,12.3500024 8.54992935,12.3500024 8.54992935,12.3500024 L8.54992935,17.0999991 L8.54992935,17.0999991 C8.54992935,18.149341 7.6992773,19 6.64994384,19 C6.64994384,19 6.64994382,19 6.64994382,19 L1.89998561,19 L1.89998551,19 C0.850652047,19 0,18.149341 0,17.0999991 C0,17.0999991 0,17.0999991 0,17.099999 L0,12.3500024 L0,12.3500027 C0,11.3006607 0.850652047,10.4500015 1.89998551,10.4500015 C1.89998551,10.4500015 1.89998553,10.4500015 1.89998553,10.4500015 L6.64994373,10.4500015 L6.64994392,10.4500015 Z M6.64994392,0 L6.64994384,0 C7.6992773,0 8.54992935,0.850658932 8.54992935,1.90000089 C8.54992935,1.90000089 8.54992935,1.90000091 8.54992935,1.90000091 L8.54992935,6.64999756 L8.54992935,6.64999756 C8.54992935,7.69933951 7.6992773,8.54999844 6.64994384,8.54999844 L1.89998564,8.54999844 L1.89998553,8.54999844 C0.850652069,8.54999844 2.19211787e-08,7.69933951 2.19211787e-08,6.64999756 C2.19211787e-08,6.64999756 2.19211787e-08,6.64999754 2.19211787e-08,6.64999754 L2.19211787e-08,1.90000089 L2.19211787e-08,1.90000115 C2.19211787e-08,0.850659197 0.850652069,0 1.89998553,0 C1.89998555,0 1.89998555,0 1.89998557,0 L6.64994378,0 L6.64994392,0 Z M18.0498614,6.17499786 L18.0498614,6.17499786 C18.574527,6.17491754 19,6.60018261 19,7.12485247 C19,7.64952234 18.5748187,8.0749186 18.0501531,8.07499877 C18.0500561,8.07499877 18.0499592,8.07499877 18.0498622,8.07499877 L11.3999029,8.07499877 L11.399903,8.07499877 C10.8752373,8.0750791 10.4497644,7.64981402 10.4497644,7.12514415 C10.4497644,6.60047429 10.8749457,6.17507803 11.3996113,6.17499786 C11.3997082,6.17499786 11.3998052,6.17499786 11.3999022,6.17499786 L18.0498615,6.17499786 L18.0498614,6.17499786 Z M18.0498614,3.32499542 L18.0498614,3.32499542 C18.574527,3.3249151 19,3.75018017 19,4.27485003 C19,4.79951989 18.5748187,5.22491616 18.0501531,5.22499633 C18.0500561,5.22499633 18.0499592,5.22499633 18.0498622,5.22499633 L11.3999029,5.22499633 L11.399903,5.22499633 C10.8752373,5.22507666 10.4497644,4.79981157 10.4497644,4.27514171 C10.4497644,3.75047185 10.8749457,3.32507558 11.3996113,3.32499542 C11.3997082,3.32499542 11.3998052,3.32499542 11.3999022,3.32499542 L18.0498615,3.32499542 L18.0498614,3.32499542 Z M18.0498614,0.474992974 L18.0498614,0.474992974 C18.574527,0.474912654 19,0.900177725 19,1.42484759 C19,1.94951745 18.5748187,2.37491372 18.0501531,2.37499388 C18.0500561,2.37499388 18.0499592,2.37499388 18.0498622,2.37499388 L11.3999029,2.37499388 L11.399903,2.37499388 C10.8752373,2.37507422 10.4497644,1.94980913 10.4497644,1.42513927 C10.4497644,0.900469405 10.8749457,0.475073142 11.3996113,0.474992974 C11.3997082,0.474992974 11.3998052,0.474992974 11.3999022,0.474992974 L18.0498615,0.474992974 L18.0498614,0.474992974 Z" id="形状"></path>
            </g>
        </g>
    </g>
</svg>