<?xml version="1.0" encoding="UTF-8"?>
<svg width="23px" height="23px" viewBox="0 0 23 23" version="1.1" xmlns="http://www.w3.org/2000/svg" xmlns:xlink="http://www.w3.org/1999/xlink">
    <!-- Generator: Sketch 60 (88103) - https://sketch.com -->
    <title>关闭</title>
    <desc>Created with Sketch.</desc>
    <g id="页面-1" stroke="none" stroke-width="1" fill="none" fill-rule="evenodd">
        <g id="iPhone-11-Pro-icon" transform="translate(-49.000000, -375.000000)" fill="#333333" fill-rule="nonzero">
            <g id="关闭" transform="translate(49.000000, 375.000000)">
                <path d="M13.2805435,11.4998431 L22.6453573,2.13153131 C23.1182142,1.65848196 23.1182142,0.879010498 22.6453573,0.405961144 L22.594204,0.354787016 C22.1213471,-0.118262339 21.3421928,-0.118262339 20.8693359,0.354787016 L11.5045221,9.73620369 L2.14002192,0.354787016 C1.66716503,-0.118262339 0.888010704,-0.118262339 0.415153815,0.354787016 L0.364000508,0.405961144 C-0.121333503,0.879010498 -0.121333503,1.65848196 0.364000508,2.13153131 L9.72881432,11.5001569 L0.364000508,20.8684687 C-0.108545176,21.341518 -0.108545176,22.1209895 0.364000508,22.5940389 L0.415153815,22.645213 C0.888010704,23.1182623 1.66716503,23.1182623 2.14002192,22.645213 L11.5045221,13.2765874 L20.8693359,22.6448992 C21.3421928,23.1179486 22.1213471,23.1179486 22.594204,22.6448992 L22.6453573,22.5937251 C23.1182142,22.1206758 23.1182142,21.3412043 22.6453573,20.8681549 L13.2805435,11.4998431 Z" id="路径"></path>
            </g>
        </g>
    </g>
</svg>