<?xml version="1.0" encoding="UTF-8"?>
<svg width="19px" height="19px" viewBox="0 0 19 19" version="1.1" xmlns="http://www.w3.org/2000/svg" xmlns:xlink="http://www.w3.org/1999/xlink">
    <!-- Generator: Sketch 60 (88103) - https://sketch.com -->
    <title>退出登陆备份</title>
    <desc>Created with Sketch.</desc>
    <g id="页面-1" stroke="none" stroke-width="1" fill="none" fill-rule="evenodd">
        <g id="Wallet(ICP)-rules" transform="translate(-1840.000000, -52.000000)" fill="#000000" fill-rule="nonzero">
            <g id="编组-3" transform="translate(1830.000000, 42.000000)">
                <g id="退出登陆备份" transform="translate(10.000000, 10.000000)">
                    <path d="M9.41332186,19 C4.22257796,19 0,14.7383141 0,9.50009471 C0,4.26235773 4.22257796,0 9.41332186,0 L9.41332168,0 C11.7542833,-0.00212766775 14.0116456,0.878203062 15.7429048,2.46843731 L15.7429048,2.46843729 C16.0634903,2.76204306 16.087535,3.26233906 15.7966099,3.58587969 C15.7965623,3.58593263 15.7965147,3.58598558 15.7964671,3.58603851 L15.7962788,3.58622852 C15.5052168,3.91084905 15.009505,3.93374597 14.6879431,3.63999956 L14.687943,3.63999948 C13.2450138,2.31521186 11.3640151,1.58176243 9.41332414,1.5833025 C5.08795244,1.5833025 1.56893522,5.13475688 1.56893522,9.5 C1.56893522,13.8660936 5.08795244,17.4166945 9.41332414,17.4166945 C11.3619008,17.4166945 13.2296177,16.6915447 14.6722234,15.374155 L14.6722234,15.374155 C14.9927832,15.0807552 15.4883241,15.105168 15.7790441,15.4286825 C15.7793295,15.4290001 15.7796146,15.4293179 15.7798995,15.429636 L15.7798995,15.429636 C16.0705423,15.7534976 16.0461006,16.2537992 15.7253017,16.547238 L15.7249252,16.547523 C13.9936108,18.1292089 11.7517108,19 9.41332316,19" id="路径"></path>
                    <path d="M16.5265452,10.8084144 L6.76469846,10.8084144 C6.34412775,10.8084144 6,10.4446168 6,10 C6,9.55539689 6.34412775,9.19159928 6.76469846,9.19159928 L16.5265452,9.19159928 L14.8599578,7.37891707 L14.8599578,7.37891705 C14.5625346,7.06274851 14.5625346,6.55198614 14.8599578,6.2358176 L14.8599579,6.23581758 C15.1590318,5.92139413 15.6421782,5.92139413 15.9412521,6.23581761 L18.7767751,9.31994972 L18.7767751,9.31994972 C18.932224,9.48459277 19.012931,9.71212543 18.9982105,9.94422641 C19.0005965,9.98128526 19.0005965,10.0185381 18.9982105,10.055597 L18.9982106,10.0555974 C19.012971,10.2877325 18.9322599,10.5153125 18.7767751,10.6799707 L15.9412521,13.7641028 L15.9412521,13.7641028 C15.6422194,14.0786324 15.1589905,14.0786324 14.8599579,13.7641028 L14.8599579,13.7641028 C14.5625347,13.4479343 14.5625347,12.9371719 14.8599579,12.6210033 L16.5265453,10.8082245 L16.5265453,10.8084185 L16.5265452,10.8084144 Z" id="路径"></path>
                </g>
            </g>
        </g>
    </g>
</svg>