<svg xmlns="http://www.w3.org/2000/svg" xmlns:xlink="http://www.w3.org/1999/xlink" viewBox="0 0 558.59 618.59"><defs><style>.cls-1{fill:url(#未命名的渐变);}</style><radialGradient id="未命名的渐变" cx="279.29" cy="310.64" fx="45.451077375499636" fy="-120.71722968948848" r="490.67" gradientTransform="matrix(1, 0, 0, -1, 0, 619.94)" gradientUnits="userSpaceOnUse"><stop offset="0.19" stop-color="#ffcb39"/><stop offset="0.2" stop-color="#f9c544"/><stop offset="0.28" stop-color="#d29692"/><stop offset="0.34" stop-color="#b575cb"/><stop offset="0.39" stop-color="#a360ef"/><stop offset="0.42" stop-color="#9c58fc"/><stop offset="0.46" stop-color="#8750f0"/><stop offset="0.55" stop-color="#513dd2"/><stop offset="0.57" stop-color="#4338ca"/></radialGradient></defs><title>资源 2</title><g id="图层_2" data-name="图层 2"><g id="图层_1-2" data-name="图层 1"><g id="图层_1-2-2" data-name="图层 1-2"><path class="cls-1" d="M356.29,251.2,506.51,49.61q-41.85-31-90.11-42.54A253.4,253.4,0,0,0,228.73,34.84c-4.43,2.58-8.76,5.32-13,8.18-.36-.85-.72-1.7-1.15-2.52a37.43,37.43,0,0,0-21.25-18.28,36.23,36.23,0,0,0-14.61-1.79l2.79,37.1-37,2.72a36.31,36.31,0,0,0,4,14.18A36.92,36.92,0,0,0,164,90.13q-4.65,5.59-9.06,11.52-31.08,41.85-42.5,90.45a251.62,251.62,0,0,0,27.67,187,239.07,239.07,0,0,0,20.32,29.67q-6-.66-12-.73A123,123,0,0,0,33.65,483.39l-.15.41a33.43,33.43,0,0,0-22.85,8.95,34.08,34.08,0,0,0-7.56,10.48,33.41,33.41,0,0,0-3,12.46,32.6,32.6,0,0,0,2,13.12l22.59-8.29c-.26,3.08-.44,6.17-.47,9.29a123.24,123.24,0,0,0,8.54,46.26A119.79,119.79,0,0,0,59.3,616.84l87.89-86.13L233,618.59a119.91,119.91,0,0,0,27.41-40.23,123.76,123.76,0,0,0,.93-92.68c-.2-.52-.44-1-.65-1.56A236,236,0,0,0,297,495.9a253.38,253.38,0,0,0,187.66-27.77q42.87-25,73.93-66.82Zm-87.23-81.33a26.71,26.71,0,1,1,26.71-26.71h0a26.7,26.7,0,0,1-26.68,26.7Z"/></g></g></g></svg>