<?xml version="1.0" encoding="UTF-8"?>
<svg width="160px" height="147px" viewBox="0 0 160 147" version="1.1" xmlns="http://www.w3.org/2000/svg" xmlns:xlink="http://www.w3.org/1999/xlink">
    <!-- Generator: Sketch 60 (88103) - https://sketch.com -->
    <title>像素橡皮</title>
    <desc>Created with Sketch.</desc>
    <g id="页面-1" stroke="none" stroke-width="1" fill="none" fill-rule="evenodd">
        <g id="Wallet(ICP)-rules" transform="translate(-879.000000, -2202.000000)" fill="#F9CE0D" fill-rule="nonzero">
            <g id="像素橡皮" transform="translate(879.000000, 2202.000000)">
                <path d="M98.0488925,9.04861379 C100.23567,6.86106031 103.209355,5.64299075 106.30729,5.66747616 C109.405224,5.70099407 112.370627,6.94392218 114.565687,9.13976185 L156.528584,51.1175551 C158.723645,53.3133948 159.966132,56.2798499 159.999638,59.378884 C160.024115,62.4779181 158.806477,65.4526594 156.6197,67.6402128 L82.2526433,142.041922 L82.2526439,142.041922 C79.8834896,144.409781 76.7109251,145.799934 73.3647198,145.93643 L47.7115684,146.988776 L47.7115684,146.988776 C43.9119039,147.143071 40.2208275,145.700968 37.5314578,143.011406 L10.4287381,115.890649 L10.4287387,115.89065 C5.13352745,110.651627 5.08646502,102.110413 10.3236391,96.8133218 C10.3255383,96.8114008 10.3274381,96.8094804 10.3293385,96.8075605 L98.0489249,9.0485817 L98.0488925,9.04861379 Z M27.3264644,106.427824 L49.0534862,128.170812 L70.3663456,127.292476 L79.6435823,118.020233 L47.6867504,86.0604723 L27.3348771,106.427986 L27.3264644,106.427824 Z M0,0 L16.5664941,0 L16.5664941,16.5723749 L0,16.5723749 L0,0 Z M0,33.1447498 L16.5664941,33.1447498 L16.5664941,49.7171247 L0,49.7171247 L0,33.1447498 Z M33.1329882,33.1447498 L49.6994824,33.1447498 L49.6994824,49.7171247 L33.1329882,49.7171247 L33.1329882,33.1447498 Z M33.1329882,0 L49.6994824,0 L49.6994824,16.5723749 L33.1329882,16.5723749 L33.1329882,0 Z M16.5664941,16.5723749 L33.1329882,16.5723749 L33.1329882,33.1447498 L16.5664941,33.1447498 L16.5664941,16.5723749 Z" id="形状"></path>
            </g>
        </g>
    </g>
</svg>