<?xml version="1.0" encoding="UTF-8"?>
<svg width="112px" height="138px" viewBox="0 0 112 138" version="1.1" xmlns="http://www.w3.org/2000/svg" xmlns:xlink="http://www.w3.org/1999/xlink">
    <!-- Generator: Sketch 60 (88103) - https://sketch.com -->
    <title>收益</title>
    <desc>Created with Sketch.</desc>
    <g id="页面-1" stroke="none" stroke-width="1" fill="none" fill-rule="evenodd">
        <g id="Wallet(ICP)-rules" transform="translate(-1401.000000, -2207.000000)" fill="#F9CE0D" fill-rule="nonzero">
            <g id="收益" transform="translate(1401.000000, 2207.000000)">
                <path d="M73.1733333,33.5439107 L73.1733331,33.5439106 C75.5053685,34.08249 77.9227893,33.1608397 79.3955602,31.1716678 L79.3955634,31.1716635 C81.7564738,28.0399323 83.938155,24.7612641 85.9288675,21.35325 L85.9288675,21.3532502 C89.2394737,15.2669955 87.264412,7.49090396 81.5174383,3.98491129 C81.3113102,3.85915864 81.1016995,3.73992008 80.8888835,3.62735283 L80.8888837,3.62735293 C76.1685357,0.606913267 70.603317,-0.581169576 65.1466128,0.266675574 C59.5466128,1.18921394 54.9421732,8.10825092 48.5955503,8.83311319 C42.2488837,9.55796465 36.1511107,4.1545283 31.982217,4.48400132 C25.3244441,4.94527128 22.0888837,14.1706596 25.7599899,21.3533352 L25.7599834,21.3533242 C27.7909459,24.7648442 30.0142334,28.043605 32.4177563,31.1717686 L32.4177559,31.1717681 C33.8905268,33.1609463 36.3079476,34.0825842 38.639983,33.544011 L38.6399763,33.5440125 C49.9536826,30.9090315 61.672893,30.9090315 72.986643,33.5440094 L73.1733333,33.5439107 Z M69.9207086,43.381149 C71.8006848,43.6528718 73.7494949,43.187883 74.9367729,42.1843107 C76.8400295,40.604295 35.1278887,40.6061479 37.0654949,42.1843616 C38.2527726,43.1879367 40.2015827,43.6529193 42.0815591,43.3811996 C51.2021272,42.051806 60.6495989,42.051806 69.7702077,43.3811988 L69.9207086,43.381149 Z M69.9207086,38.381149 C71.8006848,38.6528718 73.7494949,38.187883 74.9367729,37.1843107 C76.8400295,35.604295 35.1278887,35.6061479 37.0654949,37.1843616 C38.2527726,38.1879367 40.2015827,38.6529193 42.0815591,38.3811996 C51.2021272,37.051806 60.6495989,37.051806 69.7702077,38.3811988 L69.9207086,38.381149 Z M56,45 C19.2266667,45 0,72.2807926 0,99.1662114 C0,115.508277 5.78666667,137.253837 56,137.253837 C106.213333,137.253837 112,115.508277 112,99.1662114 C112,72.2807926 92.7733333,45 56,45 Z M57.12,86.0627261 C70.9955604,89.5551896 73.1111234,97.7921542 73.1111234,102.338999 L73.1111234,102.339003 C72.8794703,109.786301 67.6321915,115.982427 60.6666082,117.033719 L60.6666082,118.812902 L60.6666082,118.812902 C60.6666082,121.542386 58.5772686,123.755074 55.9999415,123.755074 C53.4226145,123.755074 51.3332749,121.542386 51.3332749,118.812902 L51.3332749,117.231406 L51.3332741,117.231406 C44.1398991,115.943729 38.8779845,109.340239 38.8888178,101.614141 L48.2221678,101.614141 C48.2221678,105.567879 51.3955012,108.203709 56.4977283,108.203709 C61.5999553,108.203709 63.7777283,105.963253 63.7777283,102.866163 C63.7777283,99.7690734 58.9243949,97.1332429 54.8799553,96.2765945 C41.0043949,92.784131 38.8888178,84.5471665 38.8888178,80.0003214 L38.8888178,80.0003189 C39.120485,72.5530208 44.3677638,66.3568955 51.3333325,65.3055873 L51.3333325,63.5264051 L51.3333325,63.5264059 C51.3333321,60.7969212 53.4226721,58.5842333 55.9999992,58.5842333 C58.5773263,58.5842333 60.6666658,60.7969212 60.6666658,63.5264059 C60.6666658,63.5264059 60.6666658,63.5264059 60.6666658,63.5264059 L60.6666658,65.5032749 L60.6666671,65.5032751 C67.8600421,66.7909536 73.1219567,73.3944421 73.1111234,81.1205405 L63.7777733,81.1205405 C63.7777733,77.1668024 60.60444,74.5309719 55.5022129,74.5309719 C50.3999858,74.5309721 48.2222129,76.7714286 48.2222129,79.8685183 C48.2222129,82.965608 53.0755463,85.0083778 57.1199858,86.0627131 L57.12,86.0627261 Z" id="形状"></path>
            </g>
        </g>
    </g>
</svg>