<?xml version="1.0" encoding="UTF-8"?>
<svg width="177px" height="147px" viewBox="0 0 177 147" version="1.1" xmlns="http://www.w3.org/2000/svg" xmlns:xlink="http://www.w3.org/1999/xlink">
    <!-- Generator: Sketch 60 (88103) - https://sketch.com -->
    <title>绘制</title>
    <desc>Created with Sketch.</desc>
    <g id="页面-1" stroke="none" stroke-width="1" fill="none" fill-rule="evenodd">
        <g id="Wallet(ICP)-rules" transform="translate(-337.000000, -2202.000000)" fill="#F9CE0D" fill-rule="nonzero">
            <g id="绘制" transform="translate(337.000000, 2202.000000)">
                <path d="M10.1875145,0.208365664 C12.9692132,-0.368739953 16.301794,0.208365664 18.5217068,2.50045616 C20.7470716,4.79798874 22.410636,7.6562849 22.410636,10.5254796 L22.410636,12.8175701 C23.5124072,12.8175701 24.6305488,13.3892307 25.7377648,13.3892307 L107.907005,41.4877184 L83.4771614,71.8728832 C83.4771614,71.8728832 71.8212922,109.145218 69.6013938,121.188145 C69.6013938,123.474793 71.2649582,124.62356 72.9285226,124.05734 C83.4771614,119.473159 117.3485,101.691842 116.79208,102.263476 L142.33462,70.7295877 L148.994344,109.722279 L148.994344,110.8656 C149.550684,110.299385 150.657909,110.299385 151.214257,110.299385 C153.995956,109.722279 157.323085,110.8656 159.542998,112.586033 C161.76291,114.883566 162.875578,117.747318 163.426475,120.616499 C163.982814,123.485693 163.426475,126.921094 161.206562,129.213184 C158.986649,131.505275 156.215869,132.648599 153.439622,133.231145 L152.321488,133.231145 C149.550693,133.231145 147.330794,132.659484 145.110882,130.939055 C142.890969,128.646964 141.778301,125.777769 141.2165,122.908589 L141.2165,120.616499 L140.671069,120.616499 L51.8367244,132.664925 C52.3821558,133.236586 52.3821558,133.808246 52.3821558,134.379911 C52.9439505,137.249106 52.3821558,140.684506 50.1622431,142.982039 C47.9423303,145.268687 45.1715499,146.411997 42.3953031,147 L41.288077,147 C38.5172822,147 36.2973838,146.422894 34.077471,144.70791 C31.8521062,142.410377 30.7394238,139.541182 30.1830898,136.671988 C29.6376584,133.802793 30.1830898,130.367393 32.4030026,128.06986 C34.6229154,125.783212 37.4046142,124.629003 40.180861,124.062798 L13.5256235,26.0093638 C12.9692837,25.4377032 12.9692837,24.2889354 12.9692837,23.7118313 L11.3057193,23.7118313 C8.52402055,23.7118313 6.30410777,22.5685099 4.08420937,20.8535351 L4.08420939,20.8535351 C1.61757569,18.9159406 0.184577601,15.9506983 0.200732203,12.8176132 C-0.355607555,9.94841849 0.200732203,6.51301814 2.42064499,4.21548557 C4.64055777,1.92883715 7.42225656,0.774628786 10.187585,0.208423116 L10.1875145,0.208365664 Z M41.8334207,130.933526 C42.8711417,130.954554 43.8634385,131.362399 44.6151194,132.076848 L44.6151194,132.076848 L44.7853656,132.172678 C45.7793651,132.775931 46.2786839,133.888398 46.2786839,135.528589 C46.2786839,136.089352 45.7223441,137.815226 45.1714578,138.958547 C44.6096718,140.11276 43.5024414,140.678975 41.838877,140.678975 C40.731661,140.678975 39.0571797,140.678975 38.5117482,139.535654 C37.3990745,138.95855 36.8372798,137.815226 36.8372798,136.089355 C36.8372798,134.946031 36.8372798,133.231046 37.9554142,132.65394 C38.5117482,131.50517 39.6189786,130.938954 41.282543,130.938954 L41.282543,130.938954 L41.8388828,130.938954 Z M147.26085,12 L165.527407,28.5400491 L108.000768,96.9704958 C108.000768,96.9704958 89.7452039,106.650614 83.6635644,108.937262 C82.5563383,108.937262 82,108.371047 82,107.227718 C83.1126795,100.95579 89.745132,80.4304467 89.745132,80.4304467 L89.7396777,80.4304467 L147.26085,12 Z M159.02327,-6.00408612e-13 C159.754149,-6.00408612e-13 160.457754,0.310330447 160.95955,0.854769248 L175.337117,13.4040821 L175.337117,13.4040821 C176.441138,14.4876913 176.456083,16.2594921 175.370497,17.3615053 C175.359464,17.3727052 175.348337,17.3838121 175.337117,17.3948249 L169.255564,24.8100773 L151,8.2700426 L157.092472,0.854790182 C157.594268,0.310351381 158.29242,-6.00408612e-13 159.023299,-6.00408612e-13 L159.02327,-6.00408612e-13 Z" id="形状"></path>
            </g>
        </g>
    </g>
</svg>