<svg width="18" height="18" xmlns="http://www.w3.org/2000/svg"><path d="M5.784 17.692H2.526A2.174 2.174 0 0 1 .354 15.52v-3.258c0-1.197.974-2.171 2.172-2.171h3.258c1.197 0 2.171.974 2.171 2.171v3.258a2.174 2.174 0 0 1-2.171 2.172Zm-3.258-6.154c-.4 0-.724.325-.724.724v3.258c0 .4.325.724.724.724h3.258a.725.725 0 0 0 .724-.724v-3.258c0-.399-.325-.724-.724-.724H2.526Zm12.99 6.154H12.26a2.174 2.174 0 0 1-2.172-2.172v-1.913c0-1.197.952-2.381 2.15-2.381h3.222c1.198 0 2.205 1.18 2.205 2.378l.024 1.916a2.174 2.174 0 0 1-2.171 2.172Zm-3.237-5.097c-.399 0-.744.627-.744 1.027v1.898c0 .4.325.724.724.724h3.258a.725.725 0 0 0 .723-.724l-.02-1.901c0-.4-.347-.996-.746-.996m-9.69-4.7H2.526A2.174 2.174 0 0 1 .354 5.752V2.494c0-1.197.974-2.172 2.172-2.172h3.258c1.197 0 2.171.975 2.171 2.172v3.258a2.174 2.174 0 0 1-2.171 2.171ZM2.526 1.77c-.4 0-.724.325-.724.724v3.258c0 .399.325.724.724.724h3.258a.725.725 0 0 0 .724-.724V2.494c0-.399-.325-.724-.724-.724H2.526Zm12.919 7.331h-3.251c-1.198 0-2.11-.984-2.11-2.182l-.032-4.425c0-1.197.974-2.172 2.172-2.172h3.258c1.197 0 2.171.975 2.171 2.172l.011 4.422c0 1.198-1.021 2.185-2.219 2.185Zm-3.221-7.33c-.4 0-.724.324-.724.723l.022 4.418c0 .399.344.806.743.806l3.209-.015c.399 0 .746-.559.746-.958l-.014-4.25c0-.4-.325-.725-.724-.725h-3.258Z" fill="#000" fill-rule="nonzero"/></svg>