<svg width="20" height="22" xmlns="http://www.w3.org/2000/svg"><path d="M17.593 0C18.89 0 19.938 1.042 20 2.269V22l-2.472-2.084-1.357-1.226-1.481-1.282.618 2.021H2.346C1.05 19.43 0 18.453 0 17.16V2.274C0 1.047 1.053.003 2.35.003h15.236L17.593 0Zm-5.65 5.21h-.028l-.186.183c1.914.55 2.84 1.408 2.84 1.408-1.233-.612-2.346-.918-3.457-1.042-.803-.124-1.607-.058-2.286 0h-.184c-.435 0-1.358.184-2.595.674-.432.186-.68.308-.68.308s.926-.919 2.965-1.409l-.125-.123s-1.543-.059-3.21 1.163c0 0-1.667 2.882-1.667 6.435 0 0 .923 1.595 3.456 1.656 0 0 .37-.489.743-.919-1.421-.429-1.975-1.287-1.975-1.287s.123.06.31.184h.054c.028 0 .041.014.056.027v.006c.014.014.028.027.055.027.305.125.61.248.86.367.43.185.982.37 1.661.492.859.123 1.843.183 2.964 0 .554-.124 1.108-.245 1.662-.49.36-.184.804-.367 1.29-.676 0 0-.553.857-2.036 1.286.305.427.735.917.735.917 2.534-.055 3.518-1.65 3.573-1.582 0-3.547-1.676-6.435-1.676-6.435-1.51-1.113-2.922-1.155-3.172-1.155l.053-.016Zm.155 4.044c.649 0 1.173.55 1.173 1.224 0 .679-.527 1.229-1.173 1.229s-1.172-.55-1.172-1.223c.002-.679.529-1.227 1.172-1.23Zm-4.195 0c.646 0 1.17.55 1.17 1.224 0 .679-.527 1.229-1.173 1.229s-1.173-.55-1.173-1.223c0-.679.527-1.227 1.177-1.23Z" fill="#FFF" fill-rule="nonzero"/></svg>