<svg width="20" height="20" xmlns="http://www.w3.org/2000/svg"><path d="M19.156 8.562c-.03-.297-.156-.577-.39-.765l-1.547-1.329c-.469-.39-1.172-.343-1.563.11l-7.03 8.125a1.205 1.205 0 0 0-.235.47v.015l-.329 2-.015.046a1.143 1.143 0 0 0 .906 1.234c.03 0 .062.016.094.016.14.016.281 0 .406-.03l1.922-.642c.172-.046.328-.14.453-.265l7.078-8.172c.156-.219.266-.515.25-.813Zm-8.36 7.813-1.108.375.203-1.125 4.937-5.719.89.797-4.921 5.672Zm5.922-6.843-.89-.797.704-.813.906.781-.72.829Zm-13.827 6.28V4.188A2.097 2.097 0 0 0 4.188 2.89h11.609a2.15 2.15 0 0 0 2.015 1.437 2.144 2.144 0 0 0 2.141-2.14 2.134 2.134 0 0 0-2.14-2.142c-.9.003-1.703.563-2.016 1.406H4.187A2.12 2.12 0 0 0 2.173.032C1 .03.046 1 .046 2.172c0 .922.594 1.719 1.422 2.015v11.625a2.135 2.135 0 0 0-1.422 2.016 2.144 2.144 0 0 0 2.14 2.14 2.135 2.135 0 0 0 2.016-1.421H5.75v-1.422H4.203a2.182 2.182 0 0 0-1.313-1.313Z" fill="#000" fill-rule="nonzero"/></svg>