<svg width="26" height="20" xmlns="http://www.w3.org/2000/svg"><g fill="#FFF" fill-rule="nonzero"><path d="M25.096 14.746V4.521L19.76 9.857l5.335 4.887m-9.005-1.219a4.62 4.62 0 0 1-3.287 1.362 4.623 4.623 0 0 1-3.289-1.362l-2.862-2.863-6.14 5.629v.943a2.238 2.238 0 0 0 2.234 2.236H22.86a2.237 2.237 0 0 0 2.235-2.235v-.974l-6.127-5.613-2.876 2.875"/><path d="M22.907.286H2.792A2.236 2.236 0 0 0 .561 2.52v.467l9.792 9.795a3.517 3.517 0 0 0 2.498 1.034c.945 0 1.832-.368 2.499-1.034l9.793-9.795V2.52A2.24 2.24 0 0 0 22.907.286M.512 4.52v10.253l5.35-4.903-5.35-5.35"/></g></svg>