<svg width="18" height="20" xmlns="http://www.w3.org/2000/svg"><path d="M10.389.9v17.2c0 .497.412.9.921.9a.927.927 0 0 0 .722-.342.912.912 0 0 0 .186-.191l4.613-6.425a.888.888 0 0 0-.221-1.255.935.935 0 0 0-1.287.22l-3.091 4.306V.9c0-.498-.413-.901-.922-.901a.911.911 0 0 0-.921.9ZM6.61 18.1V.9c0-.497-.412-.9-.921-.9a.927.927 0 0 0-.722.342.908.908 0 0 0-.186.191L.168 6.958a.887.887 0 0 0 .225 1.254.935.935 0 0 0 1.283-.22l3.092-4.305V18.1c0 .497.413.9.922.9a.911.911 0 0 0 .921-.9Z" fill="#FFF" fill-rule="nonzero"/></svg>