<svg width="21" height="18" xmlns="http://www.w3.org/2000/svg"><path d="M10.603 17.564c-.62 0-1.242-.272-1.858-.888l-6.832-6.91C1.095 8.747.321 7.782.321 5.909A5.49 5.49 0 0 1 5.805.425c1.138 0 2.23.347 3.154.999a.685.685 0 0 1-.789 1.12 4.072 4.072 0 0 0-2.365-.748 4.117 4.117 0 0 0-4.113 4.112c0 1.316.435 1.931 1.268 2.97l6.762 6.829c.343.343.619.48.884.483.273.003.535-.133.888-.487l6.784-6.854c.557-.604 1.242-1.625 1.242-2.944a4.112 4.112 0 0 0-6.887-3.036l-2.87 2.874a.683.683 0 0 1-.97 0 .683.683 0 0 1 0-.97l2.893-2.896A5.49 5.49 0 0 1 15.408.421a5.49 5.49 0 0 1 5.483 5.484c0 1.765-.88 3.092-1.621 3.891l-6.807 6.877c-.619.619-1.238.891-1.86.891Z" fill="#000" fill-rule="nonzero"/></svg>