<svg width="15" height="20" xmlns="http://www.w3.org/2000/svg"><defs><linearGradient x1="50%" y1="0%" x2="50%" y2="100%" id="a"><stop stop-color="#E02020" offset="0%"/><stop stop-color="#FA6400" offset="100%"/></linearGradient></defs><path d="M7.778 20c-3.866 0-7-3.256-7-7.273 0-2.144.684-3.876 2.05-5.194a.852.852 0 0 1 1.237.048.933.933 0 0 1 .223.764c-.224 1.43.198 2.144 1.266 2.144 2.798 0-3.045-9 3.974-10.489-1.75 3.106 2.666 6.65 3.937 8.486a7.432 7.432 0 0 1 1.313 4.241c0 4.017-3.134 7.273-7 7.273Zm.875-2.727c1.933 0 3.5-1.628 3.5-3.637 0-.502-.392-.909-.875-.909s-.875.407-.875.91c0 1.004-.784 1.818-1.75 1.818-.483 0-.875.407-.875.909s.392.909.875.909Z" fill="url(#a)" fill-rule="nonzero"/></svg>