<svg width="19" height="19" xmlns="http://www.w3.org/2000/svg"><g fill="#000" fill-rule="nonzero"><path d="M9.413 19C4.223 19 0 14.738 0 9.5S4.223 0 9.413 0a9.343 9.343 0 0 1 6.33 2.468c.32.294.345.794.054 1.118a.779.779 0 0 1-1.11.054 7.79 7.79 0 0 0-5.274-2.057C5.088 1.583 1.57 5.135 1.57 9.5c0 4.366 3.519 7.917 7.844 7.917a7.783 7.783 0 0 0 5.26-2.043.779.779 0 0 1 1.107.056.796.796 0 0 1-.055 1.117A9.339 9.339 0 0 1 9.413 19"/><path d="M16.527 10.808H6.765c-.42 0-.765-.363-.765-.808 0-.445.344-.808.765-.808h9.762L14.86 7.379a.844.844 0 0 1 0-1.143.738.738 0 0 1 1.081 0l2.836 3.084a.834.834 0 0 1 .221.624.867.867 0 0 1 0 .112.834.834 0 0 1-.221.624l-2.836 3.084a.737.737 0 0 1-1.081 0 .844.844 0 0 1 0-1.143l1.667-1.813Z"/></g></svg>