<svg width="21" height="21" xmlns="http://www.w3.org/2000/svg"><defs><linearGradient x1="50%" y1="0%" x2="50%" y2="100%" id="a"><stop stop-color="#E02020" offset="0%"/><stop stop-color="#FA6400" offset="100%"/></linearGradient></defs><path d="m19.89 12.01-1.567-1.64a2.252 2.252 0 0 1-.416-2.22l.86-2.097a.86.86 0 0 0-.834-1.278l-2.265-.013a2.252 2.252 0 0 1-1.863-1.27L12.931 1.4a.86.86 0 0 0-1.492-.309l-1.641 1.56a2.252 2.252 0 0 1-2.219.417l-2.097-.854a.86.86 0 0 0-1.278.834l-.047 2.238a2.252 2.252 0 0 1-1.27 1.863l-2.092.874a.86.86 0 0 0-.309 1.493l1.567 1.64a2.26 2.26 0 0 1 .416 2.219l-.853 2.118a.86.86 0 0 0 .833 1.277l2.266.054a2.252 2.252 0 0 1 1.856 1.237l.874 2.091a.86.86 0 0 0 1.492.31l1.641-1.567a2.252 2.252 0 0 1 2.219-.417l2.097.86a.86.86 0 0 0 1.278-.833l.054-2.266a2.252 2.252 0 0 1 1.27-1.862l2.091-.874a.86.86 0 0 0 .303-1.493Zm-6.502 2.69c-.39.067-.907 0-1.667-.727-.531-.524-2.158-2.48-3.254-3.805l.793 3.94c.063.276.05.564-.04.833-.221.54-.83.81-1.378.612-.501-.199-.835-.678-.848-1.217l-1.062-6.05a1.25 1.25 0 0 1 .215-.982c.233-.267.561-.432.915-.458.48-.137.993.047 1.277.458.551.625 1.096 1.257 1.634 1.889.672.773 1.284 1.553 1.923 2.326l-.82-4.108a1.345 1.345 0 0 1 .067-.78c.126-.36.443-.619.82-.672a1.11 1.11 0 0 1 .86.195 1.5 1.5 0 0 1 .518.988l1.05 6.018a1.17 1.17 0 0 1-1.003 1.54Z" fill="url(#a)" fill-rule="nonzero"/></svg>