<svg width="23" height="19" xmlns="http://www.w3.org/2000/svg"><g fill="#000" fill-rule="nonzero"><path d="M11.5 19C6.26 19 2 14.74 2 9.5c0-.203.012-.406.024-.609L3.694 9c-.011.167-.011.334-.011.501 0 4.32 3.509 7.83 7.829 7.83a7.775 7.775 0 0 0 5.382-2.15l1.146 1.218A9.46 9.46 0 0 1 11.5 19ZM21 9.5h-1.67c0-.274-.013-.549-.049-.823a7.801 7.801 0 0 0-7.793-7.006c-1.575 0-3.08.465-4.38 1.337l-.919-1.385A9.413 9.413 0 0 1 11.5 0 9.47 9.47 0 0 1 21 9.5Z"/><path d="M2.685 4.097.025 8.692c-.073.117.024.27.158.27h5.309c.146 0 .23-.141.158-.27L3 4.097c-.073-.13-.255-.13-.316 0Zm17.324 8.815-2.66-4.595c-.073-.117.024-.27.158-.27h5.308c.146 0 .231.14.158.27l-2.648 4.595c-.06.117-.243.117-.316 0ZM6 2a1 1 0 1 0 2 0 1 1 0 1 0-2 0ZM16 16a1 1 0 1 0 2 0 1 1 0 1 0-2 0Z"/></g></svg>