<?xml version="1.0" encoding="UTF-8"?>
<svg width="20px" height="20px" viewBox="0 0 20 20" version="1.1" xmlns="http://www.w3.org/2000/svg" xmlns:xlink="http://www.w3.org/1999/xlink">
    <!-- Generator: Sketch 60 (88103) - https://sketch.com -->
    <title>形状 2</title>
    <desc>Created with Sketch.</desc>
    <g id="页面-1" stroke="none" stroke-width="1" fill="none" fill-rule="evenodd">
        <g id="Marketplace-Nfts--常规" transform="translate(-1036.000000, -602.000000)" fill="#939393" fill-rule="nonzero">
            <g id="形状-2" transform="translate(1036.000000, 602.000000)">
                <path d="M9.10421164,18.2081043 C6.67242496,18.2081043 4.38617193,17.2610981 2.66658253,15.5415685 C0.94702283,13.8221874 0,11.5359744 0,9.10417093 C0,6.67236746 0.94702283,4.38609509 2.66658253,2.66653582 C4.38614223,0.946976546 6.67242496,0 9.10421164,0 C11.5359983,0 13.822281,0.94700624 15.5418407,2.66653582 C17.2614004,4.3860654 18.2084233,6.67233777 18.2084233,9.10417093 C18.2084233,11.5360041 17.2614004,13.8221874 15.541811,15.5415982 C13.8222513,17.2611278 11.5359686,18.2081043 9.10421164,18.2081043 L9.10421164,18.2081043 Z M9.10421164,1.48473783 C7.06899745,1.48473783 5.15559086,2.27730473 3.71646774,3.71643233 C2.27734463,5.15555993 1.48473415,7.0689627 1.48473415,9.10420062 C1.48473415,11.1394088 2.27728524,13.0527522 3.71643805,14.4917314 C5.15562055,15.9308886 7.06902715,16.7234259 9.10421164,16.7234259 C11.1393961,16.7234259 13.0528324,15.9308886 14.4919555,14.491761 C15.9311083,13.0527522 16.7236594,11.1394088 16.7236594,9.10420062 C16.7236594,7.0689627 15.9311083,5.15553024 14.4919555,3.71643233 C13.0528027,2.27733443 11.1393961,1.48473783 9.10421164,1.48473783 Z M19.2576552,19.9999993 L19.2576552,19.9999993 C19.0607138,20.0002624 18.8717906,19.9220143 18.7327126,19.7825779 L16.5311191,17.581023 C16.2412099,17.2910892 16.2412099,16.82109 16.5311191,16.5311858 C16.821058,16.241252 17.2910654,16.241252 17.5809746,16.5311858 L19.7825681,18.7327408 C20.0724773,19.0226746 20.0724773,19.4926738 19.7825681,19.7825779 L19.7825681,19.7825779 C19.6435082,19.9220238 19.4545903,20.0002741 19.2576552,19.9999993 L19.2576552,19.9999993 Z" id="形状"></path>
            </g>
        </g>
    </g>
</svg>