<svg width="23" height="18" xmlns="http://www.w3.org/2000/svg"><path d="M.318.2h10.267v5.867H.318V.2Zm11.733 11.733h10.267V17.8H12.051v-5.867ZM.333 7.49l1.466.081c-.308 6.094 5.603 6.549 5.867 6.6l-.095 1.467C7.483 15.6-.05 15.02.333 7.489Zm8.176 6.162 1.037 1.037-3.11 3.111-1.038-1.037 3.111-3.111Zm1.042 1.04-1.038 1.037-3.11-3.11 1.036-1.037 3.112 3.11Zm12.752-4.18-1.466-.081c.308-6.094-5.603-6.549-5.867-6.563l.095-1.467c.088 0 7.62.58 7.238 8.11ZM14.13 4.35l-1.037-1.038 3.11-3.112 1.038 1.037-3.111 3.113Zm-1.043-1.038 1.037-1.037 3.111 3.112-1.037 1.037-3.111-3.112Z" fill="#000" fill-rule="nonzero"/></svg>