<svg width="37" height="30" xmlns="http://www.w3.org/2000/svg"><path d="M31.904 0H5.096C2.279 0 0 2.293 0 5.116v19.768C0 27.71 2.283 30 5.096 30h26.808C34.721 30 37 27.707 37 24.884V5.116C37 2.293 34.72 0 31.904 0ZM10.438 6.558a2.6 2.6 0 0 1 2.594 2.605 2.6 2.6 0 0 1-2.594 2.604 2.6 2.6 0 0 1-2.593-2.604 2.6 2.6 0 0 1 2.593-2.605ZM34.43 20.57a.76.76 0 0 1-1.07-.144l-5.716-7.58c-.016-.025-1.612-2.078-3.549-1.882-1.575.18-3.123 1.865-4.475 4.877-1.432 3.2-2.837 4.869-4.416 5.26-1.79.435-3.333-.783-4.968-2.08l-.207-.165c-1.914-1.505-2.829-1.162-6.512 2.46a.751.751 0 0 1-.533.22.771.771 0 0 1-.533-1.318c3.345-3.29 5.39-5.036 8.52-2.568l.211.164c1.397 1.106 2.602 2.06 3.66 1.797 1.054-.26 2.192-1.737 3.385-4.397 1.612-3.591 3.529-5.536 5.709-5.776 2.805-.3 4.845 2.369 4.929 2.485l5.708 7.572a.77.77 0 0 1-.143 1.075Z" fill="#A6AEB7" fill-rule="nonzero"/></svg>