<svg width="17" height="18" xmlns="http://www.w3.org/2000/svg"><path d="M16.111 5.37H8.633c-2.006 0-3.637 1.593-3.637 3.551v.158c0 1.958 1.631 3.552 3.637 3.552h7.478a.755.755 0 0 0 .764-.746v-5.77a.755.755 0 0 0-.764-.746Zm-.764 5.769H8.633c-1.163 0-2.11-.924-2.11-2.06V8.92c0-1.136.947-2.06 2.11-2.06h6.714v4.278ZM13.736 0H3.139C1.41 0 0 1.376 0 3.066v11.868C0 16.624 1.409 18 3.14 18h10.596c1.73 0 3.139-1.376 3.139-3.066v-.615a.755.755 0 0 0-.764-.746.755.755 0 0 0-.764.746v.615c0 .868-.723 1.574-1.611 1.574H3.139c-.888 0-1.611-.706-1.611-1.574V3.066c0-.868.723-1.574 1.611-1.574h10.597c.888 0 1.611.706 1.611 1.574v.615c0 .412.342.746.764.746a.755.755 0 0 0 .764-.746v-.615c0-1.69-1.409-3.066-3.14-3.066ZM8.022 9c0 .518.43.938.96.938s.96-.42.96-.938a.95.95 0 0 0-.96-.938.95.95 0 0 0-.96.938Z" fill="#000" fill-rule="nonzero"/></svg>