<?xml version="1.0" encoding="UTF-8"?>
<svg width="12px" height="12px" viewBox="0 0 12 12" version="1.1" xmlns="http://www.w3.org/2000/svg" xmlns:xlink="http://www.w3.org/1999/xlink">
    <!-- Generator: Sketch 60 (88103) - https://sketch.com -->
    <title>复制</title>
    <desc>Created with Sketch.</desc>
    <g id="页面-1" stroke="none" stroke-width="1" fill="none" fill-rule="evenodd">
        <g id="个人主页-弹框效果" transform="translate(-1858.000000, -323.000000)" fill="#000000" fill-rule="nonzero">
            <g id="编组-5" transform="translate(1617.641413, 319.000000)">
                <g id="复制备份" transform="translate(241.000000, 4.000000)">
                    <path d="M9.62499533,2.40000698 L9.62499527,2.40000698 C10.3843864,2.40000698 10.9999941,2.93726464 10.9999941,3.60000593 L10.9999941,10.8000012 L10.9999941,10.8000013 C10.9999941,11.4627425 10.3843864,12 9.62499527,12 C9.62499527,12 9.62499525,12 9.62499525,12 L4.12500332,12 L4.12500325,12 C3.36561207,12 2.75000446,11.4627425 2.75000446,10.8000013 C2.75000446,10.8000012 2.75000446,10.8000012 2.75000446,10.8000012 L2.75000446,3.60000591 L2.75000446,3.60000573 C2.75000446,2.93726444 3.36561207,2.40000698 4.12500325,2.40000698 C4.12500325,2.40000698 4.12500326,2.40000698 4.12500326,2.40000698 L9.62499519,2.40000698 L9.62499533,2.40000698 Z M9.6250034,3.60000593 L4.1250034,3.60000593 L4.1250034,10.8000012 L9.6250034,10.8000012 L9.6250034,3.60000593 Z M7.56249634,0 L7.56249631,0 C7.94219109,0 8.24999651,0.268637002 8.24999651,0.600008348 L8.249309,1.20000843 L1.37499988,1.20000843 L1.37431238,9.59999827 L0.687500213,9.59999827 L0.687500199,9.59999827 C0.307805415,9.59999827 0,9.33136954 0,9 L0,1.19999858 L0,1.19999875 C0,0.537257463 0.615607608,0 1.37499879,0 C1.37499879,0 1.3749988,0 1.3749988,0 L7.56249576,0 L7.56249634,0 Z" id="形状"></path>
                </g>
            </g>
        </g>
    </g>
</svg>