<?xml version="1.0" encoding="UTF-8"?>
<svg width="27px" height="20px" viewBox="0 0 27 20" version="1.1" xmlns="http://www.w3.org/2000/svg" xmlns:xlink="http://www.w3.org/1999/xlink">
    <!-- Generator: Sketch 60 (88103) - https://sketch.com -->
    <title>discord</title>
    <desc>Created with Sketch.</desc>
    <defs>
        <linearGradient x1="100%" y1="50%" x2="0%" y2="50%" id="linearGradient-1">
            <stop stop-color="#D0EAFF" offset="0%"></stop>
            <stop stop-color="#FCF0FF" offset="100%"></stop>
        </linearGradient>
        <filter x="-4.8%" y="-13.9%" width="109.7%" height="127.8%" filterUnits="objectBoundingBox" id="filter-2">
            <feGaussianBlur stdDeviation="50" in="SourceGraphic"></feGaussianBlur>
        </filter>
        <filter x="-35.4%" y="-68.2%" width="170.7%" height="236.5%" filterUnits="objectBoundingBox" id="filter-3">
            <feOffset dx="0" dy="0" in="SourceAlpha" result="shadowOffsetOuter1"></feOffset>
            <feGaussianBlur stdDeviation="15" in="shadowOffsetOuter1" result="shadowBlurOuter1"></feGaussianBlur>
            <feColorMatrix values="0 0 0 0 0   0 0 0 0 0   0 0 0 0 0  0 0 0 0.02 0" type="matrix" in="shadowBlurOuter1" result="shadowMatrixOuter1"></feColorMatrix>
            <feMerge>
                <feMergeNode in="shadowMatrixOuter1"></feMergeNode>
                <feMergeNode in="SourceGraphic"></feMergeNode>
            </feMerge>
        </filter>
    </defs>
    <g id="页面-1" stroke="none" stroke-width="1" fill="none" fill-rule="evenodd">
        <g id="个人主页-弹框效果" transform="translate(-1762.000000, -416.000000)">
            <rect fill="#FFFFFF" x="0" y="0" width="1920" height="1080"></rect>
            <ellipse id="椭圆形备份-4" fill-opacity="0.5" fill="url(#linearGradient-1)" filter="url(#filter-2)" cx="988.5" cy="540" rx="1546.5" ry="540"></ellipse>
            <g id="编组-3备份-4" filter="url(#filter-3)" transform="translate(1727.000000, 362.000000)" fill="#FFFFFF">
                <g id="编组备份">
                    <rect id="矩形备份" x="0" y="0" width="164" height="85" rx="6"></rect>
                </g>
            </g>
            <g id="discord" transform="translate(1762.000000, 416.000000)" fill="#728BD9" fill-rule="nonzero">
                <path d="M8.84667012,9.03642512 C10.1666717,9.03642512 11.2360062,10.0270929 11.2120062,11.2364277 C11.2120062,12.4470958 10.1693383,13.4364302 8.84667012,13.4364302 C7.54933528,13.4364302 6.4800007,12.4470958 6.4800007,11.2364277 C6.4800007,10.0270929 7.52533525,9.03642512 8.84667012,9.03642512 Z M17.3133466,9.03642512 C18.6360148,9.03642512 19.6813494,10.0270929 19.6813494,11.2364277 C19.6813494,12.4470958 18.6360148,13.4364302 17.3133466,13.4364302 C16.0160118,13.4364302 14.9480106,12.4470958 14.9480106,11.2364277 C14.9480106,10.0270929 15.9906784,9.03642512 17.3133466,9.03642512 Z M19.5066825,19.4057601 C24.5080165,19.2457599 26.4333572,15.8950789 26.4333572,15.8950789 C26.4333572,8.45507028 23.1733535,2.42438618 23.1733535,2.42438618 C19.9160059,-0.0689500589 16.8133461,0.00019090643 16.8133461,0.00019090643 L16.4973457,0.369717118 C20.345345,1.57105185 22.1320137,3.30438199 22.1320137,3.30438199 L22.1320154,3.30438297 C20.0308854,2.12078264 17.7152655,1.36703957 15.3200023,1.08704706 L15.3200022,1.08704705 C13.8007869,0.915479919 12.2663007,0.930256238 10.750674,1.1310471 C10.6133405,1.1310471 10.5,1.15504712 10.3640069,1.17771382 C9.57333926,1.24838057 7.64801411,1.54704758 5.22801129,2.63371551 C4.39201032,3.02571597 3.89200974,3.30438296 3.89200974,3.30438296 C3.89200974,3.30438296 5.77201192,1.47771417 9.84402187,0.27771277 L9.61735494,0.00019090643 C9.61735494,0.00019090643 6.51735133,-0.0676209647 3.25734754,2.4270486 C3.25734754,2.4270486 -3.96127575e-13,8.45637854 -3.96127575e-13,15.8937309 C-3.96127575e-13,15.8937309 1.90133555,19.2430578 6.90266428,19.4057601 C6.90266428,19.4057601 7.73866525,18.3684057 8.41999938,17.489738 C5.54400645,16.609737 4.45999477,14.76174 4.45999477,14.76174 C4.45999477,14.76174 4.68399503,14.9244069 5.09066217,15.1550738 C5.11332887,15.1777405 5.13466222,15.2017406 5.18132895,15.2230739 C5.24932902,15.2724073 5.3173291,15.2937407 5.38666252,15.3404074 C5.95199651,15.6630744 6.5173305,15.9164081 7.03599777,16.1257416 C7.96533219,16.4950754 9.07333347,16.8644092 10.3653246,17.1204095 L10.3653243,17.1204094 C12.3000479,17.4994177 14.2892351,17.5066573 16.2266593,17.1417428 L16.2266609,17.1417425 C17.3550008,16.9403738 18.4558458,16.6074346 19.5066647,16.1497414 L19.5066637,16.1497418 C20.4234669,15.7950435 21.297059,15.3374492 22.1106667,14.7857402 C22.1106667,14.7857402 20.9786654,16.6790757 18.0133182,17.5364205 C18.693319,18.4137548 19.50932,19.4057601 19.50932,19.4057601 L19.5066533,19.4057601 L19.5066825,19.4057601 Z" id="形状"></path>
            </g>
        </g>
    </g>
</svg>