<?xml version="1.0" encoding="UTF-8"?>
<svg width="16px" height="14px" viewBox="0 0 16 14" version="1.1" xmlns="http://www.w3.org/2000/svg" xmlns:xlink="http://www.w3.org/1999/xlink">
    <!-- Generator: Sketch 60 (88103) - https://sketch.com -->
    <title>推特1</title>
    <desc>Created with Sketch.</desc>
    <g id="页面-1" stroke="none" stroke-width="1" fill="none" fill-rule="evenodd">
        <g id="个人主页备份-2" transform="translate(-903.000000, -284.000000)" fill="#00B7FF" fill-rule="nonzero">
            <g id="推特1" transform="translate(903.000000, 284.000000)">
                <path d="M14.3710049,3.98494733 C14.3710049,3.83175465 14.3681263,3.68029015 14.361494,3.52986262 C15.0030713,3.04190971 15.5597279,2.43109939 16,1.73213552 L16,1.73213539 C15.4021042,2.0067329 14.7658801,2.18439882 14.1143059,2.25871708 C14.7924583,1.83275586 15.3125398,1.15151233 15.5582985,0.333992338 C14.9233259,0.72705665 14.2209579,1.00806225 13.4741662,1.15448512 C12.8757969,0.459530692 12.0219049,0.0168905717 11.0779235,0.000441323268 C9.26497964,-0.0301511848 7.79533389,1.53360569 7.79533389,3.49272489 C7.79533389,3.77119628 7.82386664,4.04125645 7.88050871,4.30204099 C5.15045232,4.12272122 2.73127201,2.6722672 1.11303199,0.485684583 C0.830668502,1.00955822 0.668672624,1.62181028 0.668672624,2.27794136 C0.668672624,3.51892185 1.24821683,4.62188749 2.12878084,5.27274441 C1.58970709,5.24785571 1.08472564,5.08120971 0.641805343,4.80798217 L0.641805343,4.85355396 C0.641805343,6.5879816 1.77368742,8.04118992 3.27556453,8.38023837 C3.00022763,8.46017623 2.70982037,8.50177271 2.41114433,8.50027483 L2.41114435,8.50027483 C2.20362644,8.49918044 1.99678196,8.47605899 1.79395157,8.43128351 C2.2112749,9.85262202 3.42416038,10.8910315 4.86007164,10.9256396 C3.73625991,11.8767408 2.32060966,12.4448619 0.78361992,12.4408875 C0.518612746,12.4408875 0.256738395,12.4227394 0,12.3898425 C1.45330663,13.4073722 3.17841734,14 5.03290818,14 C11.069648,14.0014688 14.3710032,8.63825282 14.3710032,3.98495278 L14.3710049,3.98494733 Z" id="路径"></path>
            </g>
        </g>
    </g>
</svg>