<?xml version="1.0" encoding="UTF-8"?>
<svg width="17px" height="28px" viewBox="0 0 17 28" version="1.1" xmlns="http://www.w3.org/2000/svg" xmlns:xlink="http://www.w3.org/1999/xlink">
    <!-- Generator: Sketch 60 (88103) - https://sketch.com -->
    <title>RightOutline</title>
    <desc>Created with Sketch.</desc>
    <g id="页面-1" stroke="none" stroke-width="1" fill="none" fill-rule="evenodd">
        <g id="mint3张nft备份" transform="translate(-1159.000000, -76.000000)" fill="#4338CA" fill-rule="nonzero">
            <g id="编组-13" transform="translate(715.000000, 60.000000)">
                <g id="RightOutline" transform="translate(444.000000, 16.000000)">
                    <path d="M2.88621206,0.0825377658 L16.6659509,13.0141172 C17.085056,13.4193792 17.1100659,14.0633815 16.7394649,14.4981161 L16.6659509,14.5769583 L2.88699362,27.9137894 L2.88699363,27.9137894 C2.83009314,27.9690491 2.7529392,28 2.67251444,28 L0.30338966,28 L0.30338967,28 C0.135964012,28 0,27.8682736 0,27.7054953 C0,27.6271891 0.0319268995,27.5520771 0.0889101269,27.496737 L14.1975441,13.8393796 L0.104043991,0.506209668 L0.104043986,0.506209664 C-0.0160840826,0.392824857 -0.0189264781,0.206228452 0.0976952593,0.0894356354 C0.154852597,0.0321940543 0.233435366,0 0.315491819,0 L2.67552207,0 L2.67552207,0 C2.7540988,0 2.82963668,0.0295097845 2.88621211,0.0825263588 L2.88621206,0.0825377658 Z" id="路径"></path>
                </g>
            </g>
        </g>
    </g>
</svg>