<?xml version="1.0" encoding="UTF-8"?>
<svg width="28px" height="28px" viewBox="0 0 28 28" version="1.1" xmlns="http://www.w3.org/2000/svg" xmlns:xlink="http://www.w3.org/1999/xlink">
    <!-- Generator: Sketch 60 (88103) - https://sketch.com -->
    <title>成功</title>
    <desc>Created with Sketch.</desc>
    <g id="页面-1" stroke="none" stroke-width="1" fill="none" fill-rule="evenodd">
        <g id="mint3张nft备份" transform="translate(-745.000000, -76.000000)" fill="#6DD400" fill-rule="nonzero">
            <g id="编组-13" transform="translate(715.000000, 60.000000)">
                <g id="成功" transform="translate(30.000000, 16.000000)">
                    <path d="M14,28 L14,28 C6.26800795,28 0,21.7319922 0,14 C0,6.26800781 6.26800795,0 14,0 L14,0 C21.7319921,0 28,6.26800781 28,14 C28,21.7319922 21.7319921,28 14,28 L14,28 Z M12.6439997,17.6859922 L8.63999963,13.6340039 L5.99999879,16.1560027 C7.91999766,17.1900039 10.6099911,19.0760145 12.9140028,21.9999871 C14.5420033,18.9399793 19.5600108,12.6799832 21.9999988,12.1199832 C21.6060042,10.5419836 21.384003,7.57999102 21.9999988,5.99998711 C16.9960147,9.29999492 12.6440107,17.6859949 12.6440107,17.6859949 L12.6439997,17.6859922 Z" id="形状"></path>
                </g>
            </g>
        </g>
    </g>
</svg>