<svg width="85" height="137" xmlns="http://www.w3.org/2000/svg"><g fill-rule="nonzero" fill="none"><path d="M4.96 2h75.08C81.73 2 83 3.392 83 4.998v2.998a2.974 2.974 0 0 1-2.96 2.998H4.96C3.376 11.101 2 9.71 2 8.104V4.997C2 3.392 3.375 2 4.96 2Z" fill="#C3A494"/><path d="M79.935 13H5.062C2.32 13 0 10.712 0 8.008V4.992C0 2.288 2.32 0 5.062 0h74.873c2.847 0 5.062 2.288 5.062 4.992v2.912C85.102 10.712 82.782 13 79.935 13ZM5.062 4.16c-.422 0-.844.416-.844.832v2.912c0 .52.422.832.844.832h74.873a.826.826 0 0 0 .843-.832V4.992c0-.52-.421-.832-.843-.832H5.062Z" fill="#131313"/><path d="M78.894 11H8v17.718c0 4.94.952 9.772 2.963 14.282h65.074C77.942 38.49 79 33.658 79 28.718V11h-.106Z" fill="#F4F3FF"/><path d="M74.93 45H9.965c-.845 0-1.585-.533-1.902-1.278C5.951 38.929 5 33.923 5 28.704V11.13C5 9.96 5.95 9 7.113 9h70.774C79.05 9 80 9.959 80 11.13v17.574a36.84 36.84 0 0 1-3.169 15.018C76.514 44.574 75.775 45 74.93 45Zm-63.592-4.26h62.113c1.478-3.835 2.218-7.882 2.218-12.036V13.26H9.119v15.444c0 4.154.74 8.201 2.219 12.036Z" fill="#131313"/><path d="M4.96 126h75.08c1.691 0 2.96 1.393 2.96 3v3c0 1.714-1.375 3-2.96 3H4.96C3.27 135 2 133.607 2 132v-3c0-1.607 1.375-3 2.96-3Z" fill="#C3A494"/><path d="M79.935 137H5.062A5.048 5.048 0 0 1 0 131.968v-2.936C0 126.202 2.32 124 5.062 124h74.873a5.048 5.048 0 0 1 5.062 5.032v2.936c.105 2.83-2.215 5.032-5.062 5.032Zm-74.873-8.911a.83.83 0 0 0-.844.838v2.936c0 .524.422.839.844.839h74.873a.83.83 0 0 0 .843-.84v-2.935c0-.524-.421-.838-.843-.838H5.062Z" fill="#131313"/><path d="M42.076 98C37.626 110.584 26.5 109.955 7 109.536V126h71v-16.57c-19.922.525-31.473 1.469-35.924-11.43Z" fill="#F6EAC9"/><path d="M78.064 128H7.118C5.953 128 5 127.033 5 125.85v-16.876c0-.538.212-1.182.635-1.505.424-.43.953-.645 1.483-.645h1.8c19.484.43 27.531.215 31.132-10.427.317-.86 1.059-1.397 2.012-1.397.953 0 1.694.537 2.012 1.397 3.6 10.642 11.647 10.857 31.025 10.427l2.754-.107c.529 0 1.164.215 1.482.645.424.43.635.967.635 1.504v16.984c.212 1.183-.74 2.15-1.906 2.15Zm-68.828-4.3h66.71v-12.576h-.635c-16.201.43-27.425.645-33.144-8.922-5.718 9.46-16.942 9.244-32.931 8.922V123.7Z" fill="#131313"/><path d="M75.139 93.869c-5.087-11.663-16.002-19.722-28.612-21.1V61h-7.948v11.77c-12.61 1.483-23.525 9.542-28.612 21.099C8.06 98.322 7 103.093 7 107.97v.848c19.499.425 30.625 1.167 35.076-11.663 4.45 12.936 15.896 12.088 35.924 11.557v-.742c0-4.877-.954-9.648-2.861-14.101Z" fill="#F4F3FF"/><path d="M17.553 110.952c-2.637 0-5.591-.105-8.545-.105H7.11c-1.16 0-2.11-.949-2.11-2.108v-.843c0-5.163 1.055-10.116 3.06-14.858 5.168-11.592 15.927-19.917 28.375-22.025v-9.905c0-1.16.949-2.108 2.11-2.108h7.91c1.161 0 2.11.948 2.11 2.108v9.905c12.448 2.108 23.207 10.327 28.27 22.025A36.164 36.164 0 0 1 80 107.896v.738c0 1.16-.95 2.108-2.11 2.108l-2.742.105c-16.034.421-27.321.632-33.017-8.747-4.642 7.588-12.975 8.852-24.578 8.852Zm-8.228-4.32c19.198.421 27.215.21 30.802-10.222.316-.843 1.054-1.37 2.004-1.475.95 0 1.688.526 2.004 1.37 3.586 10.432 11.603 10.643 31.013 10.221h.633c-.211-4.11-1.055-8.114-2.743-11.802-4.852-10.854-15.084-18.442-26.899-19.706-1.055-.106-1.899-1.054-1.899-2.108v-9.59h-3.586v9.59c0 1.054-.844 2.002-1.899 2.108-11.709 1.264-22.046 8.852-26.793 19.706-1.582 3.793-2.532 7.798-2.637 11.908Z" fill="#131313"/><path d="M14.095 120A2.105 2.105 0 0 1 12 117.897v-7.884C12 92.877 25.828 79 42.905 79c1.152 0 2.095.946 2.095 2.103a2.105 2.105 0 0 1-2.095 2.102c-14.772 0-26.715 11.985-26.715 26.808v7.884A2.105 2.105 0 0 1 14.095 120Z" fill="#131313"/><path d="M42.553 64C56.61 64 69.398 55.683 75 43H10c5.602 12.787 18.39 21 32.553 21Z" fill="#F6EAC9"/><path d="M42.97 67c-15.045 0-28.702-9.025-34.784-22.992-.32-.644-.213-1.396.214-2.041.426-.645 1.066-.967 1.813-.967h65.62c.746 0 1.387.322 1.813.967.427.645.427 1.397.214 2.041C71.67 57.975 58.12 67 42.97 67c.106 0 0 0 0 0ZM13.628 45.298c5.868 10.636 17.071 17.297 29.342 17.404 12.27 0 23.473-6.768 29.342-17.404H13.628Z" fill="#131313"/><path d="M44.135 57C42.961 57 42 56.055 42 54.9c0-1.155.96-2.1 2.135-2.1 13.025 0 23.595-10.393 23.595-23.202V19.1c0-1.155.96-2.1 2.135-2.1 1.174 0 2.135.945 2.135 2.1v10.498C72 44.717 59.509 57 44.135 57Z" fill="#131313"/></g></svg>