<svg width="662" height="669" xmlns="http://www.w3.org/2000/svg" xmlns:xlink="http://www.w3.org/1999/xlink"><defs><path id="a" d="M.357.19h22.538v12.566H.357z"/><path id="c" d="M.032.123h20.957v21.779H.032z"/><path id="e" d="M.036.045h22.538v12.567H.036z"/><path id="g" d="M.163.444h21.504v22.312H.163z"/><path id="i" d="M.37.084h31.355v45.685H.37z"/><path id="k" d="M.31.023h79.648v71.651H.31z"/><path id="m" d="M.118.226h48.446v61.638H.118z"/><path id="o" d="M.394.45h39.334v39.415H.394z"/><path id="q" d="M.088.137h22.747v30.438H.088z"/><path id="s" d="M.032.034h23.796v18.61H.032z"/><path id="u" d="M.073.18h24.681v25.536H.073z"/><path id="w" d="M.433.436h28.362v23.231H.433z"/><path id="y" d="M.154.272h29.585V29.79H.154z"/><path id="A" d="M.18.169h29.606v43.443H.18z"/></defs><g fill="none" fill-rule="evenodd"><path d="M566.393 569.816c2.63-17.96 8.691-31.7 23.838-40.553 1.793-1.048 15.643 10.541 21.577 10.682-19.212-.455-30.999 13.972-41.931 27.401-1.67 2.053-3.484 2.47-3.484 2.47" fill="#FCCA04"/><path d="M566.393 569.816c2.63-17.96 8.691-31.7 23.838-40.553 1.793-1.048 15.643 10.541 21.577 10.682-19.212-.455-30.999 13.972-41.931 27.401-1.67 2.053-3.484 2.47-3.484 2.47" stroke="#642A0A" stroke-linecap="round"/><g transform="translate(632 514)"><mask id="b" fill="#fff"><use xlink:href="#a"/></mask><path d="M19.022 3.814c-4.253-.572-8.203-.638-12.003-2.938-5.024-3.04-9.416 4.807-4.546 8.008 5.479 3.601 12.437 5.38 18.48 2.274 3.803-1.953 1.405-6.894-1.931-7.344" fill="#383838" mask="url(#b)"/></g><path d="M650.303 526.998a11.425 11.425 0 0 1-8.073-3.507 11.423 11.423 0 0 1-3.228-8.188c.106-6.232 5.262-11.303 11.494-11.303l.2.002a11.425 11.425 0 0 1 8.074 3.507 11.424 11.424 0 0 1 3.228 8.188c-.106 6.232-5.263 11.303-11.494 11.303l-.2-.002Z" fill="#81C179"/><path d="M650.496 504c-6.232 0-11.388 5.07-11.494 11.304a11.42 11.42 0 0 0 3.228 8.188 11.426 11.426 0 0 0 8.073 3.506l.2.002c6.232 0 11.389-5.07 11.495-11.303a11.426 11.426 0 0 0-3.229-8.189 11.425 11.425 0 0 0-8.273-3.508m0 .452c.065 0 .128 0 .193.002 6.1.104 10.961 5.134 10.857 11.235-.103 6.036-5.029 10.86-11.042 10.86-.065 0-.13-.002-.193-.003-6.101-.104-10.962-5.134-10.857-11.235.102-6.036 5.028-10.86 11.042-10.86" fill="#642A0A"/><path d="M654 506c-1.332 0-1.334 3 0 3 1.333 0 1.334-3 0-3" fill="#FFF"/><g transform="translate(640 504)"><mask id="d" fill="#fff"><use xlink:href="#c"/></mask><path d="M18.889 14.177C12.98 14.074 8.274 9.076 8.375 3.013a11.22 11.22 0 0 1 .437-2.89C3.892 1.038.122 5.41.034 10.736-.067 16.798 4.64 21.796 10.548 21.9c4.928.087 9.124-3.267 10.441-7.9-.68.127-1.382.19-2.1.177" fill="#81C179" mask="url(#d)"/></g><g transform="translate(524 656)"><mask id="f" fill="#fff"><use xlink:href="#e"/></mask><path d="M18.701 3.67C14.448 3.099 10.5 3.033 6.7.734 1.673-2.308-2.718 5.539 2.152 8.74c5.478 3.6 12.437 5.38 18.481 2.274 3.801-1.953 1.404-6.894-1.932-7.343" fill="#383838" mask="url(#f)"/></g><path d="M540.303 666.998c-6.34-.108-11.41-5.354-11.301-11.695.106-6.232 5.262-11.303 11.493-11.303l.202.002c6.34.108 11.41 5.354 11.301 11.695-.106 6.232-5.262 11.303-11.493 11.303l-.202-.002Z" fill="#81C179"/><path d="M540.496 644c-6.231 0-11.388 5.071-11.494 11.304a11.421 11.421 0 0 0 3.229 8.188 11.424 11.424 0 0 0 8.273 3.508c6.232 0 11.388-5.07 11.494-11.303.109-6.34-4.96-11.587-11.301-11.695a9.917 9.917 0 0 0-.2-.002m0 .452c.064 0 .127 0 .192.002 6.101.104 10.962 5.134 10.857 11.235-.102 6.036-5.028 10.86-11.042 10.86-.065 0-.129-.001-.193-.003-6.1-.104-10.962-5.134-10.857-11.235.103-6.036 5.028-10.859 11.042-10.86" fill="#642A0A"/><path d="M544 649c-1.333 0-1.334 3 0 3 1.333 0 1.334-3 0-3" fill="#FFF"/><g transform="translate(530 644)"><mask id="h" fill="#fff"><use xlink:href="#g"/></mask><path d="M19.514 14.843C13.45 14.737 8.62 9.616 8.724 3.404c.018-1.029.18-2.018.45-2.96C4.123 1.38.254 5.86.163 11.316c-.103 6.212 4.728 11.333 10.79 11.439 5.057.089 9.364-3.347 10.716-8.094-.7.13-1.42.195-2.156.182" fill="#81C179" mask="url(#h)"/></g><path d="M606.338 449c-1 0-1.872-.736-2.335-1.968l-3.64-9.629c-.706-1.87-3.053-3.917-5.125-4.47l-9.508-2.531c-.965-.255-1.57-.75-1.703-1.396-.133-.645.228-1.341 1.014-1.96l7.749-6.097c1.689-1.334 3.04-4.147 2.952-6.142l-.433-10.29c-.043-.953.2-1.737.702-2.266.403-.424.947-.648 1.571-.648.433 0 .891.107 1.364.318l10.089 4.503c.89.4 2.154.619 3.562.619 1.954 0 3.968-.407 5.525-1.116l15.625-7.115c1.169-.531 2.227-.812 3.06-.812.815 0 1.416.266 1.736.768.395.62.329 1.547-.19 2.681l-6.094 13.435c-1.14 2.53-.411 6.097 1.626 7.952l10.87 9.926c1.331 1.212 1.358 2.123 1.147 2.674-.384 1.003-1.866 1.578-4.065 1.578l-.273-.003-17.157-.328-.198-.003c-3.001 0-6.743 1.415-8.342 3.155l-7.508 8.136c-.616.673-1.316 1.029-2.021 1.029" fill="#FCCA04"/><path d="M636.647 398c-.858 0-1.942.286-3.13.825l-15.511 7.05c-1.518.691-3.483 1.087-5.392 1.087-1.366 0-2.589-.21-3.443-.593l-10.016-4.463c-.498-.222-.985-.334-1.446-.334-.683 0-1.28.246-1.723.712-.542.57-.805 1.405-.76 2.414l.43 10.196c.086 1.915-1.217 4.616-2.844 5.9l-7.692 6.043c-.852.668-1.238 1.437-1.088 2.166.15.729.809 1.282 1.855 1.557l9.437 2.508c1.996.533 4.256 2.499 4.936 4.292l3.612 9.543c.494 1.313 1.44 2.097 2.53 2.097.765 0 1.516-.378 2.172-1.093l7.451-8.062c1.552-1.684 5.192-3.054 8.116-3.054.065 0 .13 0 .193.002l17.031.325.276.002c2.315 0 3.823-.606 4.246-1.707.235-.614.218-1.615-1.198-2.902l-10.79-9.837c-1.956-1.777-2.655-5.195-1.56-7.62l6.05-13.314c.692-1.513.475-2.398.173-2.874-.253-.395-.79-.866-1.915-.866m0 .455c1.622 0 2.237 1.113 1.329 3.096l-6.05 13.316c-1.173 2.597-.439 6.228 1.668 8.144l10.791 9.837c2.325 2.113 1.027 3.818-2.744 3.818l-.267-.003-17.031-.325a9.843 9.843 0 0 0-.202-.002c-3.091 0-6.825 1.437-8.447 3.2l-7.453 8.062c-.587.64-1.232.947-1.84.947-.869 0-1.663-.626-2.106-1.803l-3.612-9.544c-.737-1.945-3.119-4.002-5.243-4.57l-9.438-2.508c-1.802-.473-2.07-1.775-.603-2.925l7.693-6.044c1.725-1.36 3.11-4.198 3.016-6.276l-.429-10.198c-.074-1.638.769-2.65 2.03-2.65.386 0 .812.094 1.262.295l10.016 4.463c.946.423 2.237.632 3.627.632 1.879 0 3.939-.381 5.579-1.127l15.51-7.05c1.172-.532 2.172-.785 2.944-.785" fill="#642A0A"/><g transform="translate(585 402)"><mask id="j" fill="#fff"><use xlink:href="#i"/></mask><path d="M29.213 30.135c-.733-1.91-3.104-3.931-5.218-4.488L14.6 23.184c-1.793-.464-2.06-1.744-.6-2.873l7.657-5.935c1.718-1.337 3.095-4.124 3.002-6.164l-.152-3.58L14.822.374c-1.915-.841-3.373.212-3.277 2.313l.427 10.015c.092 2.04-1.285 4.827-3.003 6.165L1.313 24.8c-1.461 1.13-1.194 2.408.6 2.873l9.394 2.463c2.114.557 4.485 2.578 5.218 4.488l3.596 9.372c.75 1.967 2.51 2.368 3.927.842l7.418-7.919c.075-.08.177-.155.26-.234l-2.513-6.55Z" fill="#FB4232" mask="url(#j)"/></g><g transform="translate(470 150)"><mask id="l" fill="#fff"><use xlink:href="#k"/></mask><path d="m77.684 40.29-11.459-8.924c-1.76-1.38-2.951-4.646-2.541-6.983l3.054-17.14c.51-2.787-.23-4.482-.942-5.41C64.985.775 63.78.137 62.406.036c-1.426-.104-2.972.35-4.594 1.352L41.757 11.33c-1.737 1.085-4.551 1.659-7.178 1.466-1.014-.074-1.952-.263-2.71-.545L14.305 5.433c-.96-.362-1.862-.572-2.702-.633-2-.147-3.666.541-4.686 1.937-.66.903-1.58 2.902-.317 6.147l6.143 16.261c.782 2.19.197 5.698-1.245 7.32L1.855 47.382C-.227 49.748.288 51.833.605 52.62c.425 1.05 1.658 2.848 5.162 3.104.205.016.417.025.636.029l15.995.403c.123.003.238.008.354.017 2.693.197 5.753 1.836 6.814 3.183l7.916 9.976c1.102 1.39 2.547 2.218 4.068 2.33 2.094.153 4.013-1.03 5.133-3.165l5.953-11.311c.862-1.621 3.822-3.881 6.486-4.465l15.65-3.364c2.775-.581 4.633-2.065 5.087-4.068.192-.85.366-3.038-2.175-5" fill="#642A0A" mask="url(#l)"/></g><path d="M516.789 215c-.994 0-1.974-.54-2.76-1.518l-7.98-9.925c-1.681-2.106-5.748-3.94-8.882-4.006l-16.16-.402c-1.97-.032-3.37-.658-3.84-1.718-.391-.886-.09-1.954.848-3.007l9.722-10.864c1.978-2.196 2.742-6.55 1.668-9.512l-6.204-16.205c-.65-1.65-.652-3.024-.004-3.968.51-.744 1.374-1.138 2.499-1.138.735 0 1.564.17 2.463.504l17.756 6.801c1.265.465 2.824.712 4.504.712 2.764 0 5.516-.679 7.36-1.816l16.194-9.897c1.134-.69 2.175-1.041 3.095-1.041.848 0 1.552.307 2.04.889.687.82.89 2.118.586 3.75l-3.081 17.07c-.554 3.116.961 7.174 3.378 9.044l11.566 8.889c1.114.849 1.609 1.834 1.394 2.775-.26 1.132-1.522 2.011-3.463 2.413l-15.796 3.35c-3.13.677-6.72 3.165-8.004 5.549l-6.006 11.262c-.678 1.276-1.733 2.009-2.893 2.009" fill="#81C179"/><path d="M536.607 148c-1.002 0-2.121.367-3.326 1.09l-16.223 9.772c-1.784 1.083-4.456 1.73-7.147 1.73-1.632 0-3.142-.235-4.368-.678l-17.771-6.71c-.958-.35-1.84-.527-2.628-.527-1.258 0-2.274.465-2.861 1.31-.512.734-.934 2.08-.04 4.315l6.213 16c1.023 2.78.298 6.883-1.589 8.947l-9.741 10.728c-1.43 1.58-1.191 2.823-.922 3.423.549 1.223 2.054 1.916 4.24 1.95l16.179.397c3.033.063 6.955 1.8 8.57 3.794l7.995 9.801c.871 1.07 1.974 1.658 3.104 1.658 1.328 0 2.525-.805 3.282-2.21l6.017-11.12c1.21-2.216 4.75-4.626 7.729-5.26l15.822-3.309c2.144-.437 3.495-1.397 3.799-2.703.148-.637.143-1.896-1.556-3.172l-11.586-8.775c-2.305-1.758-3.75-5.58-3.22-8.519l3.086-16.853c.327-1.735.092-3.137-.682-4.049-.572-.673-1.394-1.03-2.376-1.03m0 .85c1.757 0 2.695 1.477 2.204 4.079l-3.088 16.855c-.584 3.246 1.014 7.408 3.544 9.34l11.59 8.777c2.282 1.714 1.415 3.694-1.896 4.369l-15.826 3.309c-3.247.691-6.976 3.25-8.31 5.693l-6.017 11.12c-.628 1.163-1.55 1.758-2.516 1.758-.832 0-1.694-.44-2.426-1.339l-7.994-9.8c-1.752-2.163-5.93-4.046-9.228-4.114l-16.187-.397c-3.378-.054-4.597-1.841-2.683-3.957l9.739-10.727c2.1-2.296 2.896-6.715 1.755-9.817l-6.217-16.007c-1.1-2.75-.148-4.465 2.093-4.465.665 0 1.443.151 2.316.47l17.782 6.714c1.356.49 2.989.731 4.669.731 2.73 0 5.589-.634 7.602-1.856l16.22-9.77c1.091-.655 2.07-.965 2.874-.965" fill="#642A0A"/><g transform="translate(477 152)"><mask id="n" fill="#fff"><use xlink:href="#m"/></mask><path d="M45.304 43.872c-1.75-2.2-5.923-4.114-9.218-4.184l-16.17-.404c-3.375-.054-4.593-1.872-2.68-4.023l9.729-10.906c2.097-2.336 2.892-6.829 1.752-9.983L25.7 6.468 10.698.703c-3.807-1.42-5.83.435-4.404 4.061l6.21 16.276c1.14 3.154.345 7.647-1.752 9.982l-9.73 10.906c-1.911 2.151-.694 3.969 2.681 4.023l16.17.404c3.295.07 7.468 1.984 9.219 4.184l7.984 9.963c1.582 1.975 3.772 1.774 4.937-.424l6.01-11.308c.149-.277.336-.555.54-.831l-3.259-4.067Z" fill="#81C179" mask="url(#n)"/></g><path d="M539.792 300.613c.046-.095 4.699-9.66 5.942-23.58 1.147-12.838-.455-32.114-14.6-51.041l-.134-.18 8.085-5.812.114.203c.071.126 7.097 12.734 10.703 28.888 3.331 14.932 4.342 36.033-9.77 51.767L539.108 302l.684-1.387Z" fill="#FCCA04"/><path d="m538.632 220-.38.27-7.883 5.574-.369.26.274.362c6.364 8.377 10.786 17.519 13.146 27.172 1.886 7.723 2.465 15.79 1.72 23.977-1.269 13.94-5.997 23.5-6.045 23.596L537.696 304l2.094-2.297c6.397-7.016 10.325-15.667 11.676-25.712 1.077-8.016.523-16.931-1.646-26.497-3.69-16.263-10.882-28.96-10.954-29.086l-.234-.408Zm-.137.626s28.759 50.314.982 80.782c0 0 19.192-38.273-8.864-75.207l7.882-5.575Z" fill="#642A0A"/><path d="M526 403.762c6.371-12.545 14.797-23.26 25.042-31.844 8.278-6.939 17.775-12.524 28.225-16.6 18.239-7.112 33.571-7.318 35.26-7.318l.473.006-2.532 14.608-.228-.043a63.398 63.398 0 0 0-11.59-1.071c-21.93 0-40.949 11.55-53.042 21.238-13.116 10.508-21.14 21.156-21.22 21.262l-.388-.238Z" fill="#D38EFC"/><path d="M614.259 348c-1.684 0-16.974.205-35.155 7.287-10.418 4.059-19.885 9.62-28.14 16.529-10.213 8.55-18.612 19.219-24.964 31.71l.771.474c.08-.106 8.051-10.668 21.077-21.091 7.642-6.114 15.502-10.985 23.363-14.477 9.81-4.357 19.65-6.567 29.245-6.567 3.843 0 7.708.357 11.486 1.06l.454.086.078-.453 2.436-14.027.09-.521-.531-.009-.21-.001m0 .453h.202l-2.435 14.028a63.042 63.042 0 0 0-11.57-1.069c-42.365 0-74.05 42.318-74.05 42.318 27.638-54.355 84.049-55.277 87.853-55.277" fill="#642A0A"/><path d="M510.147 426.84c-7.527-11.666-12.306-24.114-14.203-37-1.517-10.307-1.204-20.915.93-31.527 3.635-18.068 11.406-30.05 11.485-30.169l.095-.144L533 335.823l-.308.265c-19.051 16.436-24.056 40.183-24.899 57.21-.914 18.462 2.73 33.217 2.767 33.364l.336 1.338-.749-1.16Z" fill="#FC2A17"/><path d="m508.697 328-.19.29c-.08.12-7.939 12.192-11.612 30.383-2.158 10.685-2.475 21.366-.94 31.745 1.917 12.974 6.746 25.508 14.353 37.254l1.508 2.328-.677-2.687c-.037-.148-3.705-14.956-2.78-33.47.541-10.86 2.533-20.85 5.92-29.696 4.228-11.04 10.654-20.32 19.101-27.58l.62-.533-.78-.247-24.191-7.682-.332-.105Zm.193.54 24.19 7.682c-37.302 32.06-22.386 91.202-22.386 91.202-33.193-51.252-1.804-98.883-1.804-98.883Z" fill="#642A0A"/><path d="M558.23 308.75c1.949-15.544 9.2-29.91 12.568-45.442 1.262-4.575 2.385-8.61 3.186-11.492.801-2.881 1.284-4.61 1.284-4.61s5.31 4.098 11.11 7.316c3.849 1.51 9.207.173 14.295 2.33-14.351 15.565-26.158 32.209-39.394 48.135-1.93 2.392-3.05 3.763-3.05 3.763" fill="#81C179"/><path d="M558.23 308.75c1.949-15.544 9.2-29.91 12.568-45.442 1.262-4.575 2.385-8.61 3.186-11.492.801-2.881 1.284-4.61 1.284-4.61s5.31 4.098 11.11 7.316c3.849 1.51 9.207.173 14.295 2.33-14.351 15.565-26.158 32.209-39.394 48.135-1.93 2.392-3.05 3.763-3.05 3.763" stroke="#642A0A" stroke-width="1.01" stroke-linecap="round" stroke-linejoin="round"/><g transform="translate(52)"><mask id="p" fill="#fff"><use xlink:href="#o"/></mask><path d="m37.908 18.864-6.237-4.325c-.696-.486-1.38-1.803-1.374-2.652l.028-7.59c.01-1.518-.572-2.425-1.061-2.917a3.15 3.15 0 0 0-2.252-.93c-.837 0-1.702.319-2.502.921l-6.057 4.596c-.377.288-1.211.594-2.162.594-.314 0-.605-.037-.821-.104L8.298 4.075a4.799 4.799 0 0 0-1.496-.256c-1.142 0-2.146.497-2.755 1.364-.392.556-.952 1.758-.306 3.558l2.493 7.149c.26.784.039 2.289-.449 2.948L1.29 24.967c-.955 1.3-1.156 2.73-.552 3.925.594 1.174 1.828 1.847 3.384 1.847l.2-.003 7.561-.15h.001c.884 0 2.191.668 2.683 1.35l4.424 6.148c1.116 1.55 2.413 1.781 3.086 1.781 1.203 0 2.71-.744 3.338-2.837l2.192-7.28c.248-.805 1.3-1.872 2.118-2.14l7.219-2.31c1.536-.479 2.543-1.524 2.748-2.862.206-1.34-.444-2.642-1.783-3.572" fill="#383838" mask="url(#p)"/></g><path d="M80.48 36c-.383 0-.963-.172-1.554-.991l-4.35-6.03c-.828-1.144-2.653-2.075-4.07-2.075l-7.666.15c-.83 0-1.434-.289-1.7-.814-.277-.545-.14-1.238.386-1.952l4.412-6c.83-1.12 1.147-3.214.695-4.575l-2.454-7.02c-.263-.732-.236-1.382.077-1.826.257-.364.689-.565 1.217-.565a2.9 2.9 0 0 1 .896.158l7.086 2.348c.381.118.847.181 1.34.181 1.22 0 2.454-.364 3.226-.95l5.943-4.5c.47-.353.94-.539 1.364-.539.358 0 .677.13.922.376.34.341.517.884.513 1.572l-.028 7.43c-.01 1.414.967 3.294 2.134 4.109l6.125 4.237c.733.508 1.085 1.123.991 1.733-.093.608-.61 1.088-1.457 1.352l-7.101 2.267c-1.37.447-2.834 1.928-3.26 3.302l-2.152 7.136C81.73 35.458 81.172 36 80.48 36" fill="#FCCA04"/><path d="M85.19 0c-.5 0-1.02.201-1.548.598l-5.826 4.41c-.687.523-1.842.86-2.945.86-.449 0-.869-.056-1.214-.164l-6.93-2.295a3.186 3.186 0 0 0-.99-.173c-.636 0-1.163.25-1.483.703-.375.532-.417 1.283-.117 2.114l2.404 6.878c.4 1.207.106 3.151-.633 4.15l-4.324 5.88c-.807 1.096-.603 1.9-.41 2.282.189.37.697.993 1.983.993l.142-.003 7.3-.144.07-.001c1.265 0 2.96.864 3.7 1.887l4.26 5.907c.667.924 1.353 1.118 1.81 1.118.834 0 1.523-.638 1.845-1.708l2.109-6.994c.379-1.224 1.738-2.6 2.965-2.999l6.956-2.22c1.298-.405 1.602-1.18 1.668-1.607.112-.728-.296-1.473-1.12-2.043l-6.002-4.152c-1.058-.74-1.946-2.448-1.937-3.73l.027-7.285c.005-.767-.205-1.387-.606-1.79A1.594 1.594 0 0 0 85.19 0m0 .707c.634 0 1.057.55 1.051 1.553l-.027 7.282c-.011 1.511.996 3.446 2.242 4.316l6.002 4.152c1.237.857 1.078 1.946-.36 2.395l-6.96 2.222c-1.447.47-2.975 2.018-3.424 3.467l-2.11 6.995c-.239.794-.673 1.204-1.164 1.204-.4 0-.836-.27-1.235-.824l-4.26-5.908c-.873-1.205-2.783-2.18-4.276-2.18h-.084l-7.311.145-.117.002c-1.42 0-1.877-.96-1.001-2.148l4.322-5.88c.89-1.2 1.207-3.37.732-4.802l-2.406-6.883c-.41-1.14.009-1.872.933-1.872.227 0 .484.044.767.137l6.941 2.3c.427.132.917.196 1.426.196 1.208 0 2.525-.358 3.374-1.004l5.823-4.41c.41-.307.794-.455 1.122-.455" fill="#642A0A"/><g transform="translate(61 4)"><mask id="r" fill="#fff"><use xlink:href="#q"/></mask><path d="M20.403 19.495c-.923-1.23-2.967-2.223-4.53-2.185l-7.6.145c-1.57.053-2.097-.928-1.162-2.153l4.493-5.897c.924-1.203 1.254-3.38.76-4.817l-.812-2.243L5.07.273C3.578-.2 2.772.59 3.303 2.013l2.501 6.904c.494 1.437.164 3.614-.76 4.817L.55 19.631c-.934 1.224-.407 2.207 1.163 2.153l7.6-.145c1.563-.038 3.607.955 4.53 2.185l4.43 5.926c.926 1.24 2.044 1.063 2.493-.381l2.07-6.62-2.433-3.254Z" fill="#FB4232" mask="url(#r)"/></g><path d="M186.592 267a.407.407 0 0 1-.32-.156c-.077-.098-7.777-9.833-20.06-19.438-11.315-8.85-28.945-19.398-48.683-19.398-6.38 0-12.694 1.1-18.764 3.268a.406.406 0 0 1-.522-.25l-5.22-14.986a.409.409 0 0 1 .326-.54c.035-.005 3.49-.5 9.053-.5 9.774 0 24.697 1.464 40.284 8.439 19.06 8.529 33.955 22.984 44.268 42.964a.409.409 0 0 1-.362.597" fill="#D38EFC"/><path d="M102.728 215v.82l-.001-.82c-5.545 0-8.895.486-9.035.506a.808.808 0 0 0-.575.387.831.831 0 0 0-.072.696l5.176 15.037a.817.817 0 0 0 .763.55.801.801 0 0 0 .272-.047 54.158 54.158 0 0 1 18.462-3.255c8.579.001 17.472 2.031 26.436 6.036 7.195 3.214 14.452 7.699 21.568 13.33 12.143 9.609 19.758 19.35 19.834 19.447a.803.803 0 0 0 1.073.182.828.828 0 0 0 .28-1.067c-10.267-20.133-25.098-34.7-44.08-43.298-15.518-7.028-30.373-8.504-40.101-8.504m-.002.82c18.227 0 60.01 5.367 83.465 51.36 0 0-30.353-39.124-68.47-39.127-6.08 0-12.353.995-18.737 3.303l-5.175-15.037s3.367-.498 8.917-.498" fill="#642A0A"/><path d="M156.513 216a.487.487 0 0 1-.401-.21c-.063-.09-6.413-9.138-17.843-18.066-10.53-8.225-27.654-18.03-49.435-18.03-11.287 0-22.887 2.617-34.478 7.776a.487.487 0 0 1-.675-.337l-7.67-34.164a.484.484 0 0 1 .417-.588c.032-.004 3.174-.381 8.351-.381 21.364 0 74.087 6.168 102.171 63.3a.485.485 0 0 1-.437.7" fill="#FCCA04"/><path d="M55.272 151v.987L55.27 151c-5.21 0-8.286.375-8.415.39a.973.973 0 0 0-.677.412.996.996 0 0 0-.156.784l7.671 34.704a.985.985 0 0 0 .515.667.97.97 0 0 0 .835.019c11.53-5.213 23.066-7.856 34.284-7.856 9.55 0 19 1.91 28.091 5.675 7.287 3.017 14.363 7.228 21.032 12.516 11.383 9.022 17.709 18.172 17.771 18.264a.973.973 0 0 0 1.296.29.993.993 0 0 0 .382-1.286c-12.244-25.297-30.492-43.558-54.238-54.276C83.802 152.339 64.819 151 55.272 151m-.003.987c20.44 0 73.621 5.9 101.756 64.026 0 0-25.225-36.878-67.694-36.88-10.54 0-22.14 2.271-34.685 7.942l-7.67-34.705s3.085-.383 8.293-.383" fill="#642A0A"/><path d="M173.686 175.677c-16.158-6.226-29.649-17.87-45.42-25.626-4.574-2.578-8.605-4.861-11.484-6.49-2.879-1.63-4.606-2.61-4.606-2.61s5.803-4.653 10.79-10.068c2.638-3.758 2.622-9.905 6.283-14.83 12.897 19.635 27.627 36.805 41.207 55.33 2.056 2.722 3.23 4.294 3.23 4.294" fill="#81C179"/><path d="M173.686 175.677c-16.158-6.226-29.649-17.87-45.42-25.626-4.574-2.578-8.605-4.861-11.484-6.49-2.879-1.63-4.606-2.61-4.606-2.61s5.803-4.653 10.79-10.068c2.638-3.758 2.622-9.905 6.283-14.83 12.897 19.635 27.627 36.805 41.207 55.33 2.056 2.722 3.23 4.294 3.23 4.294" stroke="#642A0A" stroke-width="1.458" stroke-linecap="round" stroke-linejoin="round"/><path d="M174 176c-16.287-6.16-29.885-17.683-45.781-25.357-4.611-2.551-8.675-4.81-11.576-6.422a5884.573 5884.573 0 0 1-4.643-2.583s5.848-4.605 10.875-9.962c2.66-3.72 2.644-9.801 6.334-14.676 13 19.43 27.846 36.42 41.535 54.752C172.816 174.445 174 176 174 176" fill="#81C179"/><g transform="translate(0 409)"><mask id="t" fill="#fff"><use xlink:href="#s"/></mask><path d="M18.2 4.147c-1.069-.478-2.152-.954-3.255-1.355-.36-.13-1.582-.566-1.133-.355-1.023-.444-2.017-.918-3.09-1.27-.313-.083-.621-.178-.926-.285L9.551.771C3.483-2-1.926 3.526.72 9.223c1.594 3.426 4.163 5.934 7.595 7.748 4.417 2.335 11.764 2.734 14.599-2.145 2.51-4.321-.514-8.802-4.716-10.68" fill="#383838" mask="url(#t)"/></g><path d="M21.778 424.998c-7.167-.122-12.898-6.053-12.776-13.22.12-7.046 5.95-12.778 12.993-12.778l.227.002c7.167.123 12.898 6.053 12.776 13.22-.12 7.046-5.95 12.778-12.993 12.778l-.227-.002Z" fill="#D38EFC"/><path d="M22.496 399a13.417 13.417 0 0 0-9.455 3.869 13.423 13.423 0 0 0-4.039 9.4 13.412 13.412 0 0 0 3.79 9.612A13.41 13.41 0 0 0 22.505 426c3.556 0 6.914-1.374 9.455-3.869a13.422 13.422 0 0 0 4.038-9.4c.127-7.442-5.824-13.602-13.267-13.73a13.464 13.464 0 0 0-.235-.001m0 .53c.075 0 .15 0 .226.002 7.162.123 12.868 6.027 12.746 13.19-.122 7.086-5.904 12.748-12.963 12.748-.076 0-.15 0-.227-.002-7.162-.123-12.868-6.027-12.746-13.189.122-7.086 5.904-12.749 12.964-12.749" fill="#642A0A"/><path d="M25.5 403c-1.998 0-2.002 3 0 3 1.998 0 2.002-3 0-3" fill="#FFF"/><g transform="translate(10 399)"><mask id="v" fill="#fff"><use xlink:href="#u"/></mask><path d="M22.28 16.66c-6.957-.122-12.5-5.983-12.382-13.092.02-1.177.207-2.31.515-3.388C4.619 1.253.18 6.379.075 12.623c-.12 7.109 5.425 12.97 12.382 13.092 5.804.1 10.746-3.831 12.297-9.263-.801.148-1.628.222-2.474.207" fill="#D38EFC" mask="url(#v)"/></g><g transform="translate(167 515)"><mask id="x" fill="#fff"><use xlink:href="#w"/></mask><path d="M22.087 5.57c-1.274-.597-2.564-1.191-3.879-1.691-.43-.164-1.887-.707-1.351-.443-1.219-.554-2.404-1.145-3.683-1.586-.373-.103-.74-.222-1.103-.355l-.293-.14C4.546-2.101-1.902 4.796 1.255 11.907c1.898 4.277 4.96 7.409 9.052 9.673 5.265 2.914 14.021 3.412 17.4-2.678 2.992-5.395-.612-10.987-5.62-13.331" fill="#383838" mask="url(#x)"/></g><path d="M193.744 535.998c-8.27-.141-14.883-6.984-14.742-15.255.14-8.13 6.865-14.743 14.993-14.743a14.9 14.9 0 0 1 10.791 4.576 14.9 14.9 0 0 1 4.212 10.68c-.14 8.13-6.865 14.744-14.993 14.744-.087 0-.174 0-.261-.002" fill="#D38EFC"/><path d="M194.496 505h-.001c-4.084 0-7.94 1.578-10.856 4.442a15.406 15.406 0 0 0-4.637 10.794 15.397 15.397 0 0 0 4.352 11.035A15.399 15.399 0 0 0 194.505 536c4.084 0 7.94-1.577 10.856-4.442a15.407 15.407 0 0 0 4.637-10.793 15.398 15.398 0 0 0-4.352-11.036 15.398 15.398 0 0 0-11.15-4.729m-.001.61.26.001c8.222.14 14.774 6.921 14.634 15.144-.14 8.135-6.779 14.636-14.884 14.636-.086 0-.173 0-.26-.002-8.223-.14-14.775-6.92-14.634-15.143.14-8.136 6.779-14.637 14.884-14.637" fill="#642A0A"/><path d="M198.5 509c-1.998 0-2.002 3 0 3 1.998 0 2.002-3 0-3" fill="#FFF"/><g transform="translate(180 506)"><mask id="z" fill="#fff"><use xlink:href="#y"/></mask><path d="M26.773 19.32c-8.34-.14-14.984-6.914-14.842-15.132.024-1.36.248-2.67.617-3.916C5.604 1.512.282 7.437.156 14.656.014 22.872 6.66 29.647 14.998 29.788c6.958.117 12.881-4.428 14.741-10.707-.961.171-1.952.257-2.966.24" fill="#D38EFC" mask="url(#z)"/></g><path d="M256 316.594a5.5 5.5 0 1 1-10.999-.187 5.5 5.5 0 0 1 10.998.187" fill="#53BAFC"/><path d="M256 316.594a5.5 5.5 0 1 1-10.999-.187 5.5 5.5 0 0 1 10.998.187Z" stroke="#642A0A" stroke-width=".771" stroke-linecap="round" stroke-linejoin="round"/><path d="M179.574 352c-.973 0-1.818-.707-2.263-1.892l-3.329-8.82c-.633-1.679-2.74-3.517-4.6-4.014l-8.698-2.319c-.936-.247-1.524-.738-1.656-1.383-.133-.645.214-1.33.977-1.93l7.09-5.586c1.515-1.199 2.728-3.724 2.649-5.515l-.396-9.428c-.04-.91.194-1.664.68-2.175.394-.417.925-.636 1.535-.636.414 0 .853.101 1.303.302l9.23 4.127c.798.358 1.936.554 3.205.554 1.77 0 3.592-.368 5-1.01l14.296-6.518c1.087-.495 2.075-.757 2.856-.757 1.004 0 1.48.417 1.702.767.27.424.46 1.218-.165 2.586l-5.575 12.31c-1.021 2.267-.37 5.465 1.454 7.128l9.948 9.094c1.274 1.162 1.292 2.055 1.084 2.6-.373.974-1.774 1.533-3.844 1.533l-.254-.003-15.878-.303c-2.713 0-6.092 1.277-7.533 2.847l-6.87 7.455c-.59.645-1.263.986-1.948.986" fill="#53BAFC"/><path d="M207.065 305c-.847 0-1.861.267-3.014.792l-14.376 6.56c-1.372.627-3.153.987-4.885.987-1.228 0-2.322-.188-3.08-.528l-9.283-4.153c-.497-.222-.985-.335-1.45-.335-.71 0-1.33.258-1.794.748-.555.585-.824 1.431-.778 2.447l.397 9.487c.076 1.706-1.083 4.114-2.532 5.261l-7.128 5.623c-1.181.93-1.201 1.832-1.108 2.286.093.455.466 1.276 1.918 1.659l8.745 2.333c1.776.476 3.787 2.229 4.389 3.826l3.348 8.88c.5 1.332 1.47 2.127 2.598 2.127.787 0 1.553-.382 2.214-1.105l6.905-7.5c1.394-1.52 4.678-2.755 7.323-2.755l.172.002 15.786.303.26.002c2.267 0 3.754-.626 4.189-1.765.204-.533.321-1.63-1.18-3.001l-10.002-9.152c-1.73-1.58-2.35-4.619-1.38-6.774l5.606-12.388c.693-1.518.46-2.434.142-2.935-.27-.425-.837-.932-2.002-.932m0 .697c1.502 0 2.073 1.036 1.23 2.881l-5.606 12.39c-1.087 2.416-.406 5.795 1.546 7.577l10.001 9.153c2.154 1.966.951 3.552-2.543 3.552-.082 0-.164 0-.248-.002l-15.784-.303a8.528 8.528 0 0 0-.187-.002c-2.866 0-6.325 1.337-7.83 2.977l-6.906 7.502c-.544.595-1.142.881-1.706.881-.805 0-1.541-.582-1.952-1.678l-3.348-8.88c-.682-1.81-2.89-3.724-4.858-4.251l-8.748-2.334c-1.67-.44-1.917-1.652-.558-2.722l7.13-5.623c1.599-1.267 2.881-3.907 2.795-5.84l-.398-9.488c-.068-1.525.712-2.467 1.882-2.467.358 0 .752.088 1.17.275l9.282 4.153c.877.394 2.073.588 3.362.588 1.74 0 3.65-.355 5.17-1.048l14.374-6.56c1.086-.496 2.014-.731 2.73-.731" fill="#642A0A"/><g transform="translate(159 309)"><mask id="B" fill="#fff"><use xlink:href="#A"/></mask><path d="M27.413 28.745c-.692-1.817-2.931-3.738-4.927-4.267l-8.87-2.343c-1.694-.442-1.945-1.658-.567-2.731l7.23-5.645C21.9 12.49 23.2 9.84 23.114 7.9l-.144-3.405-9.145-4.05c-1.808-.8-3.185.202-3.095 2.2l.404 9.524c.087 1.94-1.213 4.59-2.835 5.861l-7.23 5.644c-1.378 1.074-1.127 2.29.567 2.732l8.87 2.342c1.996.53 4.235 2.451 4.927 4.268l3.395 8.913c.708 1.87 2.37 2.25 3.708.8l7.005-7.53c.07-.077.166-.149.245-.223l-2.373-6.23Z" fill="#D38EFC" mask="url(#B)"/></g></g></svg>