<?xml version="1.0" encoding="UTF-8"?>
<svg width="115px" height="115px" viewBox="0 0 115 115" version="1.1" xmlns="http://www.w3.org/2000/svg" xmlns:xlink="http://www.w3.org/1999/xlink">
    <!-- Generator: Sketch 60 (88103) - https://sketch.com -->
    <title>编组 6备份</title>
    <desc>Created with Sketch.</desc>
    <defs>
        <circle id="path-1" cx="37.5" cy="37.5" r="37.5"></circle>
        <filter x="-40.0%" y="-40.0%" width="180.0%" height="180.0%" filterUnits="objectBoundingBox" id="filter-2">
            <feOffset dx="0" dy="0" in="SourceAlpha" result="shadowOffsetOuter1"></feOffset>
            <feGaussianBlur stdDeviation="10" in="shadowOffsetOuter1" result="shadowBlurOuter1"></feGaussianBlur>
            <feColorMatrix values="0 0 0 0 0   0 0 0 0 0   0 0 0 0 0  0 0 0 0.1 0" type="matrix" in="shadowBlurOuter1"></feColorMatrix>
        </filter>
    </defs>
    <g id="页面-1" stroke="none" stroke-width="1" fill="none" fill-rule="evenodd">
        <g id="Canvas-Gallery-roadmap" transform="translate(-1397.000000, -1824.000000)">
            <g id="编组-6备份" transform="translate(1397.000000, 1824.000000)">
                <g id="编组-5" transform="translate(20.000000, 20.000000)">
                    <g id="椭圆形备份-11">
                        <use fill="black" fill-opacity="1" filter="url(#filter-2)" xlink:href="#path-1"></use>
                        <use fill="#4338CA" fill-rule="evenodd" xlink:href="#path-1"></use>
                    </g>
                    <g id="绘画工具_n备份-3" transform="translate(19.000000, 18.000000)" fill="#FFFFFF" fill-rule="nonzero">
                        <path d="M29.1933851,14.8658684 L29.1933851,14.8658684 C29.1933851,15.4328804 28.7337307,15.8925349 28.1667187,15.8925349 C27.5997067,15.8925349 27.1400523,15.4328804 27.1400523,14.8658684 L27.1400523,10.8563638 L23.1342128,10.8581971 L23.1342128,10.8581971 C22.5682106,10.8243267 22.1368339,10.338034 22.1707062,9.77203604 C22.2017477,9.25330809 22.6154848,8.83957011 23.1342128,8.80852945 L27.1437174,8.80852945 L27.1418841,4.80085955 L27.1418841,4.80085975 C27.1757543,4.23485753 27.6620472,3.80348085 28.2280451,3.83735316 C28.7467731,3.86839455 29.1605111,4.2821318 29.1915517,4.80085975 L29.1915517,8.80669917 L33.1992216,8.81036587 L33.1992216,8.81036587 C33.7652238,8.84423616 34.1966005,9.33052898 34.1627282,9.8965269 C34.1316867,10.4152548 33.7179496,10.8289928 33.1992216,10.8600335 L29.1915517,10.8582001 L29.1915517,14.8677048 L29.1933851,14.8658684 Z M21.2862236,27.7542311 L28.5498844,35.0288919 L35.0032395,28.5608844 L34.1965734,27.7505487 L32.986572,28.9642153 L32.986572,28.9642153 C32.7694158,29.1908547 32.4096471,29.1985422 32.1830081,28.9813863 C32.1067132,28.9082839 32.0523082,28.8153596 32.0259026,28.7130483 L32.0259026,28.7130482 C31.9733599,28.5136592 32.0321976,28.3014226 32.1799028,28.1575476 L33.3899042,26.9438809 L31.7765675,25.3250443 L30.5665661,26.5387109 L30.5665662,26.5387109 C30.3465135,26.7625388 29.9866764,26.7655995 29.7628476,26.5455469 C29.689664,26.4735978 29.6373285,26.3831751 29.6113964,26.2838772 L29.6113964,26.2838772 C29.5574654,26.0854786 29.6141601,25.8733988 29.7598965,25.7283765 L30.9698979,24.5183751 L29.3565613,22.9013733 L28.1465599,24.1132094 L28.1465599,24.1132094 C28.039122,24.2187941 27.8938432,24.2769055 27.743226,24.2745431 L27.743226,24.2745431 C27.4283321,24.2737301 27.1737175,24.0177993 27.1745339,23.7029077 C27.1749186,23.5539073 27.2336151,23.4109772 27.3380603,23.3047106 L28.5480617,22.0947092 L27.7413955,21.2843735 L21.2862236,27.7542287 L21.2862236,27.7542311 Z M10.2550584,16.7010659 L16.7102182,10.234906 L15.8998825,9.42457032 L14.6935464,10.638237 L14.6935464,10.638237 C14.5500826,10.7866349 14.3374394,10.8455855 14.1380457,10.7922371 L14.1380457,10.7922371 C13.9385957,10.7409281 13.7823161,10.5860496 13.7292118,10.3870701 L13.7292118,10.3870701 C13.6771289,10.1873494 13.7366821,9.97505948 13.8850454,9.83156947 L15.0950468,8.61790282 L13.4817102,6.99906617 L12.2717088,8.21273282 L12.2717088,8.21273282 C12.1644213,8.31719212 12.0199305,8.37459242 11.8702083,8.372233 L11.8702083,8.372233 C11.5553261,8.36942794 11.302337,8.11189149 11.3051428,7.79700968 C11.3064512,7.65013974 11.3643865,7.50943969 11.4668748,7.40423231 L12.6768762,6.19056566 L11.0598743,4.57172901 L9.84987293,5.78723042 L9.84987295,5.7872304 C9.74376794,5.89568022 9.59826011,5.95652877 9.446539,5.95589712 L9.44653899,5.95589712 C9.13165202,5.95813243 8.8745727,5.70467832 8.87233832,5.38979178 C8.87124147,5.23527898 8.93290284,5.08693693 9.04320504,4.97872946 L10.2532064,3.76872806 L9.44654028,2.95839235 L2.99503277,9.42455222 L10.2586936,16.7029083 L10.2550584,16.7010659 Z M19.0000686,8.9204045 L26.1977293,1.70989611 L26.1977292,1.70989619 C27.117515,0.783944328 28.6137832,0.778947056 29.539735,1.69873302 C29.5434685,1.70244159 29.5471895,1.70616263 29.5508981,1.70989606 L36.2535582,8.42725153 L36.2535583,8.42725156 C37.1794328,9.35538194 37.1794328,10.8577903 36.2535582,11.7859207 L29.0613975,18.9927767 L36.6000586,26.5461332 L36.6000585,26.5461331 C37.5271534,27.4744783 37.5271534,28.9782918 36.6000587,29.906637 L29.8973985,36.6239925 L29.8973986,36.6239925 C28.9747381,37.5499443 27.4761454,37.552617 26.5501935,36.6299567 C26.5482019,36.6279722 26.5462138,36.6259841 26.5442293,36.6239925 L19.0055682,29.0688314 L12.7447132,35.3388387 L12.7447134,35.3388386 C12.3797471,35.7044596 11.9052577,35.9407412 11.3935466,36.0116741 L2.05818804,37.3096756 L2.05818811,37.3096756 C1.41052798,37.4011566 0.811332364,36.9502833 0.719851789,36.3026201 C0.704331244,36.1927386 0.704331244,36.0812208 0.719851773,35.9713388 L2.01785328,26.6176756 C2.09118685,26.1043403 2.32585364,25.6295092 2.69068883,25.264674 L8.94969612,18.9946667 L1.40368733,11.4358103 L1.40368718,11.4358101 C0.477812664,10.5076798 0.477812664,9.00527137 1.40368749,8.077141 L8.10634763,1.36348084 L8.10634746,1.36348102 C8.54799798,0.914860963 9.15249165,0.664198172 9.78201465,0.668587258 C10.4218502,0.668587258 11.0305161,0.921645737 11.4576818,1.36348102 L19.0000383,8.92233747 L18.9963716,8.92050416 L19.0000686,8.9204045 Z M10.9554069,33.9215859 L35.0050872,9.82605789 L28.1484269,2.95839756 L4.09874654,27.0520779 L10.9554069,33.9215859 Z" id="形状"></path>
                    </g>
                </g>
            </g>
        </g>
    </g>
</svg>