<svg width="21" height="20" xmlns="http://www.w3.org/2000/svg"><path d="M15.9 14.789H6.856a.815.815 0 0 1-.8-.653L3.122 2.478.757 1.707A.815.815 0 0 1 1.618.322l2.663.957c.19.118.323.31.368.53l2.873 11.35h7.82l3.75-5.703a.816.816 0 0 1 1.52.59l-3.952 6.222a.815.815 0 0 1-.76.521Zm-.647-9.406L12.315 8.71a.38.38 0 0 1-.583 0L8.793 5.383c-.16-.181-.093-.33.149-.33h2.31V1.33c0-.242.199-.44.44-.44h.661c.242 0 .44.198.44.44v3.724h2.311c.242 0 .31.149.149.33ZM6.83 18.363a1.446 1.446 0 1 0 2.893 0 1.446 1.446 0 1 0-2.893 0Zm7.498 0a1.446 1.446 0 1 0 2.893 0 1.446 1.446 0 1 0-2.893 0Z" fill="#2ED400" fill-rule="nonzero"/></svg>