<svg width="18" height="18" xmlns="http://www.w3.org/2000/svg"><path d="M12.657 6.962c-2.9 0-5.342 2.444-5.342 5.518 0 3.075 2.366 5.518 5.342 5.518 2.976 0 5.341-2.443 5.341-5.518.076-3.074-2.366-5.518-5.341-5.518Zm0 9.881c-2.33 0-4.222-1.953-4.222-4.355 0-2.403 1.892-4.356 4.22-4.356 2.327 0 4.219 1.953 4.219 4.356.002 2.402-1.89 4.355-4.217 4.355ZM3.256 3.49h6.997c.244 0 .44.203.44.454v.25a.446.446 0 0 1-.44.453H3.256a.446.446 0 0 1-.44-.452v-.251c0-.251.196-.454.44-.454Zm4.597 3.157c.243 0 .44.203.44.454v.25a.446.446 0 0 1-.44.453H3.254a.446.446 0 0 1-.44-.452v-.251c0-.251.197-.454.44-.454h4.599ZM3.254 9.874h1.93c.244 0 .44.202.44.453v.25a.446.446 0 0 1-.44.453h-1.93a.446.446 0 0 1-.44-.453v-.25c0-.25.198-.453.44-.453ZM13.21 0c.776 0 1.406.65 1.406 1.452v4.235c-.3 0-.794-.078-1.098-.078L13.5 1.612a.447.447 0 0 0-.44-.452H1.566a.446.446 0 0 0-.439.454v14.768c0 .252.196.454.44.454h5.182c.228.312.263.767.565 1.162V18H1.407C.63 18 0 17.35 0 16.548V1.452C0 .65.63 0 1.407 0h11.802Zm1.99 9.685a.579.579 0 0 1 .051.723l-.042.053-1.79 1.98 1.79 1.981a.577.577 0 0 1-.01.776.484.484 0 0 1-.674.035l-.048-.046-1.77-1.96-1.771 1.96-.048.046a.484.484 0 0 1-.674-.035.58.58 0 0 1-.052-.723l.042-.053 1.79-1.98-1.79-1.982a.578.578 0 0 1 .01-.775.484.484 0 0 1 .675-.036l.047.047 1.77 1.958 1.772-1.958.047-.047a.484.484 0 0 1 .674.036Z" fill="#000" fill-rule="nonzero" stroke="#000" stroke-width=".1"/></svg>