<?xml version="1.0" encoding="UTF-8"?>
<svg width="26px" height="20px" viewBox="0 0 26 20" version="1.1" xmlns="http://www.w3.org/2000/svg" xmlns:xlink="http://www.w3.org/1999/xlink">
    <!-- Generator: Sketch 60 (88103) - https://sketch.com -->
    <title>HeartFill</title>
    <desc>Created with Sketch.</desc>
    <g id="页面-1" stroke="none" stroke-width="1" fill="none" fill-rule="evenodd">
        <g id="详情页备份-2" transform="translate(-1828.000000, -173.000000)" fill="#E02020" fill-rule="nonzero">
            <g id="HeartFill" transform="translate(1828.000000, 173.000000)">
                <path d="M12.20463,1.63478412 L12.3923194,1.78899788 L12.4223019,1.81531429 C12.5159205,1.89757741 12.6677907,1.89765142 12.7615147,1.81547991 L12.837259,1.75110235 C15.7317556,-0.652630107 20.2243023,-0.581576025 23.0246637,1.96373836 C25.905359,4.58168654 25.905359,8.82704459 23.0246637,11.4449928 L14.3309706,19.3456886 C13.4172743,20.1883752 11.8982763,20.2213783 10.9381954,19.419401 C10.9095132,19.3954421 10.881511,19.3708639 10.8542146,19.3456888 L2.1605215,11.444993 C-0.720173833,8.82652668 -0.720173833,4.58168673 2.1605215,1.96373855 C4.91532815,-0.539988898 9.30653548,-0.649481264 12.20463,1.63478412 Z" id="路径"></path>
            </g>
        </g>
    </g>
</svg>