<?xml version="1.0" encoding="UTF-8"?>
<svg width="24px" height="24px" viewBox="0 0 24 24" version="1.1" xmlns="http://www.w3.org/2000/svg" xmlns:xlink="http://www.w3.org/1999/xlink">
    <!-- Generator: Sketch 60 (88103) - https://sketch.com -->
    <title>产品展示 2备份</title>
    <desc>Created with Sketch.</desc>
    <g id="页面-1" stroke="none" stroke-width="1" fill="none" fill-rule="evenodd">
        <g id="iPhone-11-Pro-icon" transform="translate(-16.000000, -127.000000)" fill="#4338CA" fill-rule="nonzero">
            <g id="产品展示-2备份" transform="translate(16.000000, 127.000000)">
                <g id="产品展示">
                    <path d="M3.00001298,11.0004285 L9.00001047,11.0004285 C10.10521,11.0004285 11.0004096,10.1052146 11.0004096,9.00002221 L11.0004096,3.00002221 L11.0004096,3.00002221 C11.0004096,1.34316807 9.65726332,2.22056768e-05 8.00041089,2.22056768e-05 L3.99960788,2.22056768e-05 L3.9996077,2.22056768e-05 C1.79068988,2.22056768e-05 0,1.79070211 0,3.99962858 C0,3.99962858 0,3.99962858 0,3.99962858 L0,8.00043027 L0,8.00043072 C0,9.65728261 1.34314631,11.0004285 3,11.0004285 L3.00001298,11.0004285 Z M2.0004134,3.99961452 L2.0004134,3.99961771 C2.00107362,2.8957662 2.89575599,2.00108015 3.99961022,2.00041687 L8.0004134,2.00041687 C8.552413,2.00041687 9.00001281,2.44801653 9.00001281,3.00001612 L9.00001281,9.00001162 L3.00001532,9.00001162 L3.00001528,9.00001162 C2.44795223,9.00001162 2.0004134,8.55247524 2.0004134,8.00041687 C2.0004134,8.00041687 2.0004134,8.00041687 2.0004134,8.00041687 L2.0004134,3.99961068 L2.0004134,3.99961452 Z M19.9992106,2.35409626e-07 L15.999604,2.35409626e-07 L15.999604,2.35409626e-07 C14.3427503,2.35409626e-07 12.999604,1.34315401 12.999604,3.00000024 C12.999604,3.00000024 12.999604,3.00000024 12.999604,3.00000024 L12.999604,9.00000024 C12.999604,10.1052006 13.8948036,11.0003999 15.0000031,11.0003999 L21.0000006,11.0003999 L21.0000005,11.0003999 C22.6568529,11.0003999 23.9999992,9.65725637 23.9999992,8.00040215 L23.9999992,3.99840515 L23.9999992,3.99822404 C23.9992365,1.78930694 22.2079382,-0.000749528438 19.9990087,2.35409626e-07 C19.9990086,2.35409626e-07 19.9990084,2.35409626e-07 19.9990083,2.35409626e-07 L19.9992106,2.35409626e-07 Z M21.9996191,8.00039277 C21.9996191,8.55239236 21.5520099,8.99999202 21.0000126,8.99999202 L15.0000126,8.99999202 L15.0000126,2.99999652 C15.0000126,2.44799693 15.4476125,2.00039727 15.9996122,2.00039727 L19.9992199,1.99919727 C21.1044195,1.99919727 21.9996191,2.8943966 21.9996191,3.99959577 L21.9996191,8.00039746 L21.9996191,8.00039277 Z M21.0000101,12.9995707 L15.0000126,12.9995707 C13.8948131,12.9995707 12.9996135,13.8947837 12.9996135,14.9999828 L12.9996135,20.9999783 L12.9996135,20.9999788 C12.9996135,22.6568307 14.3427598,23.9999765 15.9996135,23.9999765 L20.0016106,23.9999765 L20.0016107,23.9999765 C22.2105285,23.9993136 24.0006793,22.2080966 23.9999998,19.9991749 L23.9999998,15.9995707 L23.9999998,15.9995707 C23.9999998,14.3427166 22.6568533,12.9995707 21.0000009,12.9995707 L21.0000101,12.9995707 Z M21.9996097,19.9991885 C21.9996097,21.1043876 21.1044101,21.999587 19.9992106,21.999587 L15.9996029,21.999587 L15.9996028,21.999587 C15.4475398,21.999587 15.0000032,21.5520506 15.0000032,20.9999922 L15.0000032,14.9999922 L21.0000032,14.9999922 C21.5520005,14.9999922 21.9996097,15.4475919 21.9996097,15.9995915 L21.9996097,19.9991978 L21.9996097,19.9991885 Z M11.0004328,20.9999877 L11.0004328,14.9999922 C11.0004328,13.894793 10.1052194,12.9995937 9.00002348,12.9995937 L3.00002348,12.9995937 L3.00002348,12.9995937 C1.34316979,12.9995937 2.3480701e-05,14.3427396 2.3480701e-05,15.9995937 C2.3480701e-05,15.9995937 2.3480701e-05,15.9995937 2.3480701e-05,15.9995937 L2.3480701e-05,20.0003932 L2.3480701e-05,20.0003936 C2.3480701e-05,22.2093107 1.79070632,24 3.99963118,24 L8.00043419,24 L8.00043406,24 C9.6572865,24 11.0004328,22.6568565 11.0004328,21.0000022 L11.0004328,20.9999877 Z M9.00001985,20.9999828 C9.00001985,21.5519873 8.55242003,21.999587 8.00041331,21.999587 L4.00081256,21.999587 L4.00081248,21.999587 C2.89602309,21.999587 2.00041331,21.1039775 2.00041331,19.9991885 C2.00041331,19.9991885 2.00041331,19.9991885 2.00041331,19.9991885 L2.00041331,15.9995821 C2.00041331,15.4475825 2.44801313,14.9999828 3.00001289,14.9999828 L9.00001985,14.9999828 L9.00001985,20.9999828 L9.00001985,20.9999828 Z" id="形状"></path>
                </g>
            </g>
        </g>
    </g>
</svg>