<svg width="17" height="18" xmlns="http://www.w3.org/2000/svg"><path d="M14.875 18H2.125C.953 18 0 17.068 0 15.923V2.077C0 .932.953 0 2.125 0h12.75C16.047 0 17 .932 17 2.077v13.846C17 17.068 16.047 18 14.875 18ZM2.125 1.385c-.39 0-.708.31-.708.692v13.846c0 .382.318.692.708.692h12.75a.7.7 0 0 0 .708-.692V2.077a.701.701 0 0 0-.708-.692H2.125Zm9.23 8.326H3.537a.7.7 0 0 1-.709-.692.7.7 0 0 1 .709-.693h7.818a.7.7 0 0 1 .709.693.7.7 0 0 1-.709.692Zm2.079 4.125h-9.9a.7.7 0 0 1-.708-.693.7.7 0 0 1 .708-.692h9.9a.7.7 0 0 1 .708.692.7.7 0 0 1-.708.693ZM2.827 4.529a1.05 1.05 0 0 0 1.062 1.039 1.05 1.05 0 0 0 1.063-1.039 1.05 1.05 0 0 0-1.063-1.038 1.05 1.05 0 0 0-1.062 1.038Zm4.59 0A1.05 1.05 0 0 0 8.48 5.568a1.05 1.05 0 0 0 1.063-1.039A1.05 1.05 0 0 0 8.48 3.491a1.05 1.05 0 0 0-1.062 1.038Zm4.608 0a1.05 1.05 0 0 0 1.062 1.039 1.05 1.05 0 0 0 1.063-1.039 1.05 1.05 0 0 0-1.063-1.038 1.05 1.05 0 0 0-1.062 1.038Z" fill="#000" fill-rule="nonzero"/></svg>