<svg width="19" height="18" xmlns="http://www.w3.org/2000/svg"><g fill="#231815" fill-rule="nonzero"><path d="M7.518 14h3.938a.763.763 0 1 0 0-1.524H7.518a.763.763 0 1 0 0 1.524Zm1.338-6.553a.764.764 0 0 0 .557.252h.01a.764.764 0 0 0 .553-.237l2.814-2.954a.76.76 0 0 0-.027-1.077.764.764 0 0 0-1.08.027l-1.407 1.478V.762a.763.763 0 0 0-1.527 0v4.29L7.33 3.481a.764.764 0 0 0-1.078-.056.76.76 0 0 0-.056 1.076l2.66 2.946Z"/><path d="M18.989 9.044a.718.718 0 0 0-.03-.343l-1.81-5.19A.773.773 0 0 0 16.413 3h-1.9a.763.763 0 0 0-.776.75c0 .414.347.75.775.75h1.345l1.358 3.894H1.84l1.302-3.733h1.344a.763.763 0 0 0 .775-.75.763.763 0 0 0-.775-.75h-1.9a.773.773 0 0 0-.735.51L.041 8.864a.72.72 0 0 0-.038.251L0 9.144v8.106c0 .414.347.75.775.75h17.45a.763.763 0 0 0 .775-.75V9.144c0-.034-.006-.067-.011-.1Zm-1.54 7.457H1.55V9.893h15.9v6.608Z"/></g></svg>