<svg width="18" height="15" xmlns="http://www.w3.org/2000/svg"><path d="M.98.333h5.503V14H.657a.657.657 0 0 1-.647-.667v-12c0-.552.434-1 .97-1ZM17.615 8.28l-3.45 2.07a.765.765 0 0 1-1.061-.293.819.819 0 0 1-.105-.404V8.25H8.826a.657.657 0 0 1-.647-.667c0-.368.29-.666.647-.666h4.172V5.513a.789.789 0 0 1 .774-.804.76.76 0 0 1 .392.108l3.45 2.07a.823.823 0 0 1 0 1.393ZM13.562 15H1.683C.75 14.994-.003 14.211 0 13.25V1.75C-.004.788.75.005 1.683 0h11.879c.934.005 1.687.788 1.683 1.75v1.833a.488.488 0 0 1-.48.495.488.488 0 0 1-.482-.495V1.75a.737.737 0 0 0-.721-.75H1.683a.737.737 0 0 0-.722.75v11.5a.737.737 0 0 0 .722.75h11.879a.737.737 0 0 0 .721-.75v-1.833c0-.274.216-.495.481-.495.266 0 .48.221.48.495v1.833c.004.961-.749 1.744-1.682 1.75Z" fill="#000" fill-rule="nonzero"/></svg>