<svg width="21" height="20" xmlns="http://www.w3.org/2000/svg"><path d="M15.9 14.789H6.856a.815.815 0 0 1-.8-.653L3.122 2.478.757 1.707A.815.815 0 0 1 1.618.322l2.663.957c.19.118.323.31.368.53l2.873 11.35h7.82l3.75-5.703a.816.816 0 0 1 1.52.59l-3.952 6.222a.815.815 0 0 1-.76.521Zm-.647-10.438-2.938-3.326a.38.38 0 0 0-.583 0L8.793 4.35c-.16.182-.093.33.149.33h2.31v3.724c0 .243.199.44.44.44h.661c.242 0 .44-.197.44-.44V4.681h2.311c.242 0 .31-.149.149-.33ZM6.83 18.362a1.446 1.446 0 1 0 2.893 0 1.446 1.446 0 1 0-2.893 0Zm7.498 0a1.446 1.446 0 1 0 2.893 0 1.446 1.446 0 1 0-2.893 0Z" fill="#E02020" fill-rule="nonzero"/></svg>