<svg width="18" height="17" xmlns="http://www.w3.org/2000/svg"><path d="M5.357 0c.134 0 .264.048.366.135l.07.072 2.22 2.72h8.169c.936 0 1.719.716 1.81 1.654l.008.177v2.9a.566.566 0 0 1-.562.571.565.565 0 0 1-.558-.468l-.009-.101V4.757a.693.693 0 0 0-.578-.685l-.112-.01H7.747a.562.562 0 0 1-.365-.135l-.07-.072L5.09 1.136H1.818a.693.693 0 0 0-.68.581l-.01.114v13.338c0 .346.251.631.577.686l.113.009h14.364a.69.69 0 0 0 .68-.581l.01-.114v-2.753a.566.566 0 0 1 .57-.562.565.565 0 0 1 .548.461l.01.101v2.753c0 .943-.71 1.732-1.643 1.823l-.175.008H1.818a1.823 1.823 0 0 1-1.81-1.654L0 15.169V1.831C0 .89.71.1 1.642.01L1.818 0h3.539Zm8.888 9.975a.572.572 0 0 1-.037.199l-.005.015a.566.566 0 0 1-.053.1l-.012.017a.57.57 0 0 1-.043.055l-.016.016-2.508 2.525a.561.561 0 0 1-.798.002.571.571 0 0 1-.072-.716l.071-.089 1.545-1.557-6.16.002a.566.566 0 0 1-.567-.566.567.567 0 0 1 .465-.562l.1-.009h6.163l-1.547-1.555a.571.571 0 0 1-.071-.715l.071-.088a.561.561 0 0 1 .71-.074l.088.074 2.507 2.525.018.016a.57.57 0 0 1 .044.055l-.06-.071a.571.571 0 0 1 .124.188l.005.015c.024.064.036.13.036.198h.002ZM2.458 11.806c.05 0 .095.03.115.077l.01.05v2.146c0 .114.075.213.183.244l.068.009h2.132c.069 0 .124.058.123.128 0 .05-.03.095-.076.114l-.047.01H2.834a.502.502 0 0 1-.492-.404l-.01-.1v-2.147c0-.07.056-.127.126-.127Z" fill="#000" fill-rule="nonzero"/></svg>