<svg width="21" height="20" xmlns="http://www.w3.org/2000/svg"><path d="M13.814 5.54V1H1v18h12.814v-4.044a4.64 4.64 0 0 0 1.376.207c2.67 0 4.81-2.23 4.81-4.913 0-2.683-2.145-4.917-4.81-4.917-.478 0-.94.072-1.376.207Zm-.808 12.635H1.808V1.825H4.94l.264 1.405H9.61l.28-1.405h3.116v4.048a4.913 4.913 0 0 0-2.316 2.643H2.9v.821h7.561a5 5 0 0 0 .16 2.437H2.9v.825h8.07a4.91 4.91 0 0 0 2.036 2.024v3.552Zm2.184-3.881c-2.223 0-4.002-1.857-4.002-4.088 0-2.23 1.78-4.087 4.002-4.087 2.222 0 4.002 1.857 4.002 4.087 0 2.23-1.819 4.088-4.002 4.088Zm-12.29-9h9.053v.825H2.9v-.825Zm0 9.702h9.053v.825H2.9v-.825Zm12.694-7.31h-.808v2.108h-2.063v.825h2.063v2.147h.808v-2.147h2.102v-.825h-2.102V7.687Z" fill="#000" fill-rule="nonzero" stroke="#000" stroke-width=".5"/></svg>