<svg width="85" height="85" xmlns="http://www.w3.org/2000/svg"><g fill-rule="nonzero" fill="none"><path d="M0 42.5C0 65.97 19.028 85 42.5 85 65.97 85 85 65.97 85 42.5 85 19.028 65.97 0 42.5 0 19.028 0 0 19.028 0 42.5Z" fill="#28176D"/><path fill="#FFF" d="M37.133 18.227h21.031v6.28H37.133z"/><path fill="#FC3A64" d="M37.133 30.788h21.031v6.28H37.133z"/><path fill="#F8C642" d="M58.164 24.507H37.133v-6.28h-6.28v39.326h6.28V30.788h21.031v-6.28z"/><path d="M30.852 18.227h-9.436a3.125 3.125 0 0 0-3.125 3.125V43.37h6.284v-2.094h6.285V23.888l-.008-5.661Z" fill="#7B49B6"/><path d="m29.301 71.561 7.832-13.787H18.29l7.56 13.88c.886 1.53 2.61 1.485 3.451-.093Z" fill="#F8C642"/><path d="M57.572 18.227h8.278c.474 0 .857.383.857.857V36.21a.857.857 0 0 1-.857.857h-8.278v-18.84Z" fill="#7B49B6"/><path fill="#FFF" d="M24.57 41.275h6.281v16.28h-6.28z"/><path fill="#FC3A64" d="M18.29 43.371h6.28v14.183h-6.28z"/><path d="M55.353 50.862a5.459 5.459 0 0 0-.557-.482 1.108 1.108 0 0 0-1.617 1.51c.077.093.17.173.273.236.104.086.207.17.303.266l.091.092c1.148 1.147.806 3.122-.343 4.27l-4.9 4.899a2.949 2.949 0 0 1-4.163 0l-.092-.092a2.944 2.944 0 0 1 0-4.162l2.165-2.164a1.203 1.203 0 0 0-1.424-1.938l-.002-.004-.023.022a1.21 1.21 0 0 0-.228.214l-2.25 2.105c-2.115 2.116-2.115 5.577 0 7.69l.091.091c2.115 2.113 5.574 2.113 7.689 0l4.898-4.9c2.112-2.114 2.291-5.45.18-7.563l-.09-.09Zm7.061-7.185-.091-.091c-2.115-2.115-5.574-2.115-7.689 0l-4.898 4.9c-2.115 2.114-2.231 5.168-.117 7.284l.09.088c.096.096.196.187.298.274.073.082.16.152.256.208l.002.002a1.046 1.046 0 0 0 1.462-1.362h.001c-.138-.311-.397-.5-.576-.68l-.09-.087c-1.148-1.149-.712-2.817.436-3.965L56.4 45.35a2.944 2.944 0 0 1 4.162 0l.09.09a2.947 2.947 0 0 1 0 4.163l-2.157 2.16a1.194 1.194 0 0 0 1.335 1.976l.005.006.033-.03a1.2 1.2 0 0 0 .272-.251l2.274-2.098c2.116-2.115 2.116-5.574.001-7.689Z" fill="#FFF"/></g></svg>