<svg width="215" height="299" xmlns="http://www.w3.org/2000/svg" xmlns:xlink="http://www.w3.org/1999/xlink"><defs><linearGradient x1="50%" y1="0%" x2="50%" y2="100%" id="c"><stop stop-color="#4338CA" offset="0%"/><stop offset="100%"/></linearGradient><rect id="a" x="0" y=".625" width="215" height="299" rx="10"/></defs><g fill="none" fill-rule="evenodd"><g transform="translate(0 .375)"><mask id="b" fill="#fff"><use xlink:href="#a"/></mask><g mask="url(#b)" fill="#F4F4F4" fill-rule="nonzero"><path d="M171.418 79.132C188.51 63.75 200.428-2.972 196.766.299c-29.616 26.656-50.723-7.428-81.098 16.95-17.091 15.383-18.477 41.692-3.064 58.749 15.393 17.117 41.723 18.516 58.814 3.134Zm-66.086 3.456c8.813 9.787 21.213 14.382 33.4 13.682L22.218 182.027c-5.32 3.763-12.852 2.747-17.451-2.376-4.386-4.853-4.833-11.988-1.065-16.92l91.16-112.002c-1.074 11.2 2.344 22.829 10.47 31.86Z"/></g></g><rect stroke="url(#c)" stroke-width="2" x="1" y="1" width="213" height="297" rx="10"/></g></svg>