<svg width="20" height="20" xmlns="http://www.w3.org/2000/svg" xmlns:xlink="http://www.w3.org/1999/xlink"><defs><filter x="-8.5%" y="-2.4%" width="111.4%" height="104.7%" filterUnits="objectBoundingBox" id="a"><feOffset dx="-15" in="SourceAlpha" result="shadowOffsetOuter1"/><feGaussianBlur stdDeviation="5" in="shadowOffsetOuter1" result="shadowBlurOuter1"/><feColorMatrix values="0 0 0 0 0 0 0 0 0 0 0 0 0 0 0 0 0 0 0.02 0" in="shadowBlurOuter1"/></filter><filter x="-8.3%" y="-6%" width="116.7%" height="112%" filterUnits="objectBoundingBox" id="c"><feOffset in="SourceAlpha" result="shadowOffsetOuter1"/><feGaussianBlur stdDeviation="7.5" in="shadowOffsetOuter1" result="shadowBlurOuter1"/><feComposite in="shadowBlurOuter1" in2="SourceAlpha" operator="out" result="shadowBlurOuter1"/><feColorMatrix values="0 0 0 0 0 0 0 0 0 0 0 0 0 0 0 0 0 0 0.08 0" in="shadowBlurOuter1"/></filter><rect id="d" x="0" y="0" width="270" height="374" rx="8"/><path id="b" d="M1459 128h439v952h-439z"/></defs><g fill="none" fill-rule="evenodd"><path fill="#FFF" d="M-1655-176H265V904h-1920z"/><g transform="translate(-1655 -176)"><use fill="#000" filter="url(#a)" xlink:href="#b"/><use fill="#FFF" xlink:href="#b"/></g><g transform="translate(-184 -18)"><use fill="#000" filter="url(#c)" xlink:href="#d"/><rect stroke="#EDEDED" stroke-linejoin="square" fill="#FFF" x=".5" y=".5" width="269" height="373" rx="8"/></g><path d="M15.273 19.806c-2.592-1.338-6.85-.457-9.441-.802-2.593-.346-4.266-2.739-5.147-5.208-2.255-6.315 1.524-8.028 4.597-7.89 3.075.143 1.79-3.012 6.099-5.368 4.31-2.356 5.472 3.703 4.993 5.079-.48 1.376-.81 2.69 2.442 6.139 3.252 3.449-.95 9.392-3.543 8.05Zm2.137-7.961c-2.846-2.884-2.89-4.11-2.402-5.405.42-1.123.185-6.182-3.495-4.228C7.833 4.166 8.94 7.32 6.332 7.24 3.722 7.16.147 8.6 1.997 13.697c.722 1.992 2.416 3.585 4.613 3.836 2.198.252 5.778-.37 7.964.688 2.187 1.059 5.563-3.613 2.836-6.376Zm-4.713 3.635c-1.35-.506-1.648-2.211-1.247-3.616.403-1.408-.826-3.352-1.397-4.444-.57-1.096.761-3.559 2.175-3.936 2.294-.614 1.138 2.996 1.234 5.405.1 2.41 3.536 3.979 3.5 5.453-.036 1.475-2.917 1.644-4.265 1.138Zm-3.479-1.943c-1.184 1.073-2.693 1.637-4.22 1.124-1.524-.515-2.54-3.017-1.356-4.075 2.414-2.157 2.667.102 4.635-.857 1.967-.957 2.124 2.735.941 3.808Z" fill="#999" fill-rule="nonzero"/></g></svg>