<?xml version="1.0" encoding="UTF-8"?>
<svg width="20px" height="20px" viewBox="0 0 20 20" version="1.1" xmlns="http://www.w3.org/2000/svg" xmlns:xlink="http://www.w3.org/1999/xlink">
    <!-- Generator: Sketch 60 (88103) - https://sketch.com -->
    <title>团队管理</title>
    <desc>Created with Sketch.</desc>
    <g id="页面-1" stroke="none" stroke-width="1" fill="none" fill-rule="evenodd">
        <g id="删除成员" transform="translate(-1640.000000, -158.000000)" fill="#F9CE0D" fill-rule="nonzero">
            <g id="团队管理" transform="translate(1640.000000, 158.000000)">
                <path d="M19.7584541,11.3162157 L19.7344368,11.9238397 L19.1451763,12.0730998 C18.4664501,12.244975 17.7762807,12.4317762 17.325425,12.6294327 C16.9439525,12.7967848 16.8903093,12.9049757 16.889857,12.906016 C16.8894047,12.9070563 16.8508233,13.0210367 17.000807,13.4073941 C17.1785169,13.8653058 17.5321727,14.4830615 17.8879544,15.0823631 L18.1990485,15.6065373 L17.7838794,16.0527796 C17.7736574,16.0637253 16.0840789,17.7632544 15.896147,17.9332299 L15.4511711,18.3357798 L14.9351837,18.0296157 C14.3436616,17.6786737 13.2426653,17.0255027 12.8151483,17.0255027 C12.7847083,17.0255027 12.72808,17.0255027 12.5965502,17.2657209 C12.3715746,17.6765479 12.1546953,18.4399452 11.9537822,19.2037495 L11.7993207,19.7911104 L11.1924655,19.8103785 C11.0580863,19.8143135 10.6332379,19.814992 10.3921603,19.814992 C10.3760583,19.814992 8.7745433,19.814992 8.48081763,19.7968999 L7.89336629,19.7614393 L7.74302072,19.1924419 C7.57517101,18.5572274 7.39474728,17.9108862 7.21454971,17.4863092 C7.04855445,17.095655 6.94493179,17.0372626 6.94393673,17.0367199 L6.94393674,17.0367199 C6.93279063,17.0349938 6.92151756,17.0342221 6.91024015,17.0344131 C6.50642389,17.0344131 5.46739308,17.6269302 4.90925098,17.9449446 L4.38959988,18.2412032 L3.95181566,17.8335423 C3.93992008,17.8224609 2.21456446,16.1061513 2.0020272,15.8660236 L1.61652922,15.4301843 L1.90378696,14.9240118 C2.2113531,14.3824692 2.51891925,13.8249151 2.68328622,13.4172543 C2.82553556,13.0644578 2.81567535,12.9354157 2.81259969,12.9144289 C2.80016136,12.8975127 2.71761603,12.8004032 2.37662468,12.652093 C1.97706007,12.4786348 1.37911529,12.3017842 0.792432868,12.1367841 L0.227415763,11.9778447 L0.199734809,11.391298 C0.185306339,11.0853149 0.184989726,8.92850729 0.203805538,8.58294768 L0.235466759,8.00133105 L0.795915602,7.84347725 C1.37997467,7.67892936 1.97511516,7.50311912 2.37146842,7.33237468 C2.71395237,7.18483339 2.79663339,7.09052818 2.81042864,7.07166714 C2.81391137,7.04841876 2.82209806,6.9228594 2.68269822,6.57454074 C2.52199491,6.1728503 2.22306776,5.62520164 1.92400491,5.09315744 L1.63905392,4.5865779 L2.02572789,4.15236687 C2.19104469,3.96692257 3.9201092,2.24034573 3.99853857,2.16829384 L4.43374467,1.768096 L4.94878228,2.05833894 C5.4995066,2.36870936 6.52474217,2.94643619 6.91453703,2.94643619 L6.91453702,2.94643619 C6.92414708,2.94660992 6.93375475,2.94597446 6.94325827,2.94453653 C6.95804858,2.93404309 7.05764574,2.85353313 7.2096196,2.49499242 C7.38393724,2.08339654 7.56155669,1.46062033 7.72746149,0.848608923 L7.88020426,0.2853558 L8.46245412,0.249171548 C8.70384831,0.234245544 9.8177353,0.230265276 10.3729827,0.230265276 C10.6244632,0.230265276 11.0677655,0.230988961 11.2107386,0.235738144 L11.8123018,0.255865634 L11.9691605,0.837301344 C12.1387742,1.46600273 12.3216404,2.10592124 12.5097985,2.52932223 C12.6726276,2.89568779 12.7751195,2.95245183 12.7760693,2.95290413 L12.7760693,2.95290413 C12.7875906,2.9554146 12.7993869,2.95643309 12.8111681,2.95593456 C13.2243922,2.95593456 14.3110958,2.31818711 14.8948835,1.97543178 L15.405986,1.67532863 L15.8483385,2.07009883 C16.0777015,2.27481124 17.7480118,3.95407717 17.7587314,3.96570136 L18.1748503,4.41008922 L17.8662438,4.93512272 C17.5179704,5.52763986 17.1720489,6.13779682 16.9988621,6.58978337 C16.8536275,6.96885864 16.8911235,7.07913015 16.8915758,7.08012522 C16.8920281,7.08112029 16.9449475,7.18727584 17.3251083,7.35318063 C17.7728885,7.54871129 18.4634197,7.73524111 19.1426433,7.90761385 L19.7274261,8.05605974 L19.7554689,8.65897985 C19.7697617,8.95817839 19.7689475,11.0499448 19.7584541,11.3162157 L19.7584541,11.3162157 Z M18.1369473,9.32820759 C16.7073075,8.94257392 15.7446707,8.55748301 15.3900197,7.70728877 C15.0368614,6.86084864 15.430727,5.91983192 16.1479894,4.65483044 C15.8543994,4.36083339 15.4713891,3.97863722 15.1807843,3.69083672 C14.1138012,4.29488759 13.4394171,4.58431638 12.8114394,4.58431638 C12.1233054,4.58431638 11.5757472,4.22527814 11.1839622,3.51719754 C10.9561371,3.10537552 10.7670744,2.56419479 10.5638094,1.85878278 L10.3731636,1.85878278 C9.92167457,1.85878278 9.47421105,1.86086338 9.13484799,1.86411996 C8.92855252,2.58237738 8.74677188,3.1065515 8.52704301,3.51018684 C8.14258533,4.21677484 7.59982154,4.57499894 6.91471794,4.57499894 C6.32075344,4.57499894 5.68594595,4.31610061 4.68906979,3.77591495 L4.68905982,3.7759249 C4.33811328,4.12614097 3.98807586,4.47726618 3.63894758,4.82929372 C4.30265723,6.05159778 4.64075384,6.90685782 4.31541218,7.6941367 C3.99007052,8.48141557 3.1490128,8.84750975 1.81987474,9.24313932 C1.81643724,9.68748194 1.81566832,10.2905377 1.81797507,10.7376394 C3.14982694,11.1336761 3.99264865,11.5011271 4.31894015,12.2954167 C4.64609102,13.0916964 4.29817943,13.9571785 3.61814163,15.1953132 L3.61813396,15.1953054 C3.95952786,15.5401391 4.30189196,15.8840116 4.64522398,16.2269185 C5.64119553,15.6821646 6.307619,15.4061239 6.91035819,15.4061239 C8.25102998,15.4061239 8.7443118,16.6866846 9.15730982,18.1817275 C9.49622057,18.1848032 9.94173918,18.1867481 10.3923236,18.1867481 L10.5427773,18.1867481 C10.7463137,17.4630155 10.9365976,16.9074515 11.1688553,16.4833268 C11.5634898,15.7625365 12.1173802,15.3970303 12.8150126,15.3970303 C13.4572831,15.3970303 14.1420249,15.6936508 15.223934,16.3128538 L15.223944,16.3128439 C15.539681,15.9987804 15.854787,15.6840837 16.1692576,15.3687515 C15.4357123,14.0887336 15.0315342,13.1371782 15.3862756,12.2820086 C15.7416502,11.4253917 16.7056891,11.0389438 18.1375905,10.6528579 C18.1391283,10.2499914 18.1387212,9.72862158 18.1369572,9.3281976 L18.1369473,9.32820759 Z M10.0341171,11.4714009 C10.0151656,11.4717175 9.99639505,11.4728482 9.97739832,11.4728482 C9.9655932,11.4728482 9.95392378,11.4720793 9.9421639,11.4719436 C8.12508119,11.5000317 6.65586485,12.8431459 6.65297011,14.4921527 C6.02508286,14.4921527 5.49959705,14.4970376 5.02467874,14.4970376 C5.02467874,12.7411515 6.07035841,11.2095173 7.60986267,10.4175797 L7.60986265,10.4175797 C6.42986704,9.11010247 6.53321152,7.09360383 7.84068879,5.91361273 C9.14816605,4.73361712 11.1646647,4.8369616 12.3446558,6.14443887 C13.4345549,7.3520883 13.4407582,9.18653945 12.3590488,10.4015162 C13.9155144,11.1886594 14.9753511,12.7292492 14.9753511,14.4970376 C14.4552025,14.4970376 13.9071015,14.4921459 13.3470598,14.4921459 C13.344165,12.8359475 11.8621485,11.4880841 10.0341201,11.4713941 L10.0341171,11.4714009 Z M9.97739832,6.72361986 L9.97739825,6.72361986 C9.11558886,6.72361986 8.41695235,7.42225636 8.41695235,8.28406575 C8.41695235,9.14587514 9.11558886,9.84451165 9.97739825,9.84451165 C10.8392076,9.84451165 11.5378442,9.14587514 11.5378442,8.28406575 L11.5378442,8.28408495 C11.5368578,7.42268715 10.8388142,6.72462734 9.97741636,6.72361986 L9.97739832,6.72361986 Z" id="形状"></path>
            </g>
        </g>
    </g>
</svg>