<?xml version="1.0" encoding="UTF-8"?>
<svg width="24px" height="20px" viewBox="0 0 24 20" version="1.1" xmlns="http://www.w3.org/2000/svg" xmlns:xlink="http://www.w3.org/1999/xlink">
    <!-- Generator: Sketch 60 (88103) - https://sketch.com -->
    <title>历史数据</title>
    <desc>Created with Sketch.</desc>
    <defs>
        <rect id="path-1" x="1459" y="128" width="439" height="952"></rect>
        <filter x="-8.5%" y="-2.4%" width="111.4%" height="104.7%" filterUnits="objectBoundingBox" id="filter-2">
            <feOffset dx="-15" dy="0" in="SourceAlpha" result="shadowOffsetOuter1"></feOffset>
            <feGaussianBlur stdDeviation="5" in="shadowOffsetOuter1" result="shadowBlurOuter1"></feGaussianBlur>
            <feColorMatrix values="0 0 0 0 0   0 0 0 0 0   0 0 0 0 0  0 0 0 0.02 0" type="matrix" in="shadowBlurOuter1"></feColorMatrix>
        </filter>
        <rect id="path-3" x="1470" y="382" width="434" height="424" rx="6"></rect>
        <filter x="-5.2%" y="-5.3%" width="110.4%" height="110.6%" filterUnits="objectBoundingBox" id="filter-4">
            <feOffset dx="0" dy="0" in="SourceAlpha" result="shadowOffsetOuter1"></feOffset>
            <feGaussianBlur stdDeviation="7.5" in="shadowOffsetOuter1" result="shadowBlurOuter1"></feGaussianBlur>
            <feComposite in="shadowBlurOuter1" in2="SourceAlpha" operator="out" result="shadowBlurOuter1"></feComposite>
            <feColorMatrix values="0 0 0 0 0   0 0 0 0 0   0 0 0 0 0  0 0 0 0.08 0" type="matrix" in="shadowBlurOuter1"></feColorMatrix>
        </filter>
    </defs>
    <g id="页面-1" stroke="none" stroke-width="1" fill="none" fill-rule="evenodd">
        <g id="add-whitelist" transform="translate(-1602.000000, -395.000000)">
            <rect fill="#FFFFFF" x="0" y="0" width="1920" height="1080"></rect>
            <g id="矩形">
                <use fill="black" fill-opacity="1" filter="url(#filter-2)" xlink:href="#path-1"></use>
                <use fill="#FFFFFF" fill-rule="evenodd" xlink:href="#path-1"></use>
            </g>
            <g id="矩形备份-6">
                <use fill="black" fill-opacity="1" filter="url(#filter-4)" xlink:href="#path-3"></use>
                <rect stroke="#EDEDED" stroke-width="1" stroke-linejoin="square" fill="#FFFFFF" fill-rule="evenodd" x="1470.5" y="382.5" width="433" height="423" rx="6"></rect>
            </g>
            <g id="历史数据" transform="translate(1602.000000, 395.000000)" fill="#F9CE0D" fill-rule="nonzero">
                <path d="M15.9857736,5.59697685 C12.062975,5.59697685 8.87570104,8.80699896 8.87570104,12.7525458 C8.87570104,16.6980927 12.0655025,19.9081148 15.9857736,19.9081148 C19.9085723,19.9081148 23.0958478,16.6980927 23.0958478,12.7525458 C23.0983738,8.80952654 19.9060448,5.59697685 15.9857736,5.59697685 Z M15.9857736,18.5659717 C12.8010273,18.5659717 10.2102614,15.9575128 10.2102614,12.7525458 C10.2102614,9.54757887 12.8010273,6.93911995 15.9857736,6.93911995 C19.17052,6.93911995 21.7612877,9.54757887 21.7612877,12.7525458 C21.7638135,15.9575128 19.1730476,18.5659717 15.9857736,18.5659717 Z M1.32583012,16.0105919 C1.09076551,16.0105919 0.868338776,16.1041122 0.701518729,16.2709323 C0.537226259,16.4377523 0.443705929,16.6627066 0.443705929,16.8952437 C0.443705929,17.3855935 0.838007859,17.782423 1.32330254,17.782423 L8.11995567,17.782423 C7.76862254,17.2238286 7.47542367,16.6323757 7.25046936,16.0131195 L1.32583012,16.0105919 Z M1.32583012,1.85869125 L20.1057233,1.85869125 C20.5935456,1.85869125 20.9853199,1.46186174 20.9853199,0.974039482 C20.9853199,0.738974871 20.8943272,0.514020565 20.7300347,0.347200518 C20.5657422,0.180380471 20.3407879,0.0868601412 20.1057233,0.0868601412 L1.32583012,0.0868601412 C0.850645741,0.107080753 0.474036847,0.496327529 0.474036847,0.971511906 C0.476564424,1.44922386 0.850645741,1.84099821 1.32583012,1.85869125 L1.32583012,1.85869125 Z M1.32583012,12.4719848 L6.67670951,12.4719848 C6.69440254,11.8780044 6.76517468,11.2840239 6.89155351,10.7026813 L1.32583012,10.7026813 C0.838007859,10.7026813 0.441178353,11.0995108 0.441178353,11.5873331 C0.441178353,12.0776829 0.838007859,12.4719848 1.32583012,12.4719848 Z M10.212789,5.39729831 L1.32583012,5.39729831 C1.09076551,5.39729831 0.8658112,5.49081864 0.701518729,5.65763868 C0.537226259,5.82445873 0.443705929,6.04941304 0.446183562,6.28447765 C0.446183562,6.77482748 0.840535435,7.17165699 1.32583012,7.17165699 L8.50667487,7.17165699 C8.99955228,6.5043768 9.57078456,5.91039633 10.212789,5.39729831 L10.212789,5.39729831 Z M16.1955625,12.6514428 L16.1955625,10.7936741 C16.1955625,10.3538758 15.8391742,9.99748748 15.3993759,9.99748748 C14.9595776,9.99748748 14.6031893,10.3538758 14.6031893,10.7936741 L14.6031893,13.4476294 C14.6031893,13.8899552 14.9595776,14.243816 15.3993759,14.243816 L18.0533312,14.243816 C18.4931295,14.243816 18.8495178,13.8874277 18.8495178,13.4476294 C18.8495178,13.0078311 18.4931295,12.6514428 18.0533312,12.6514428 L16.1955625,12.6514428 Z" id="形状"></path>
            </g>
        </g>
    </g>
</svg>