<svg width="22" height="22" xmlns="http://www.w3.org/2000/svg"><path d="M21.179.82a2.797 2.797 0 0 1 0 3.96L17.05 8.908l.961.961a1.438 1.438 0 0 1 0 2.037l-1.017 1.015a1.438 1.438 0 0 1-2.036 0l-.962-.96-9.217 9.215A2.798 2.798 0 0 1 0 19.196c0-.743.294-1.454.82-1.98l9.218-9.215-.962-.96a1.438 1.438 0 0 1 0-2.037l1.017-1.016a1.437 1.437 0 0 1 2.037 0l.962.96L17.22.821a2.798 2.798 0 0 1 3.959 0ZM1.839 18.238a1.36 1.36 0 0 0 1.922 1.924l9.218-9.218-1.924-1.921-9.218 9.214.001.001Z" fill="#939393" fill-rule="nonzero"/></svg>