<svg width="215" height="299" xmlns="http://www.w3.org/2000/svg" xmlns:xlink="http://www.w3.org/1999/xlink"><defs><linearGradient x1="50%" y1="0%" x2="50%" y2="100%" id="c"><stop stop-color="#4338CA" offset="0%"/><stop offset="100%"/></linearGradient><rect id="a" x="0" y="0" width="215" height="299" rx="10"/></defs><g fill="none" fill-rule="evenodd"><mask id="b" fill="#fff"><use xlink:href="#a"/></mask><use fill="#FFF" xlink:href="#a"/><g mask="url(#b)" fill="#F4F4F4" fill-rule="nonzero"><path d="M124.798 71.747c-12.853-14.785-35.024-16.554-49.52-3.952l-61.464 53.429c-14.497 12.602-15.83 34.803-2.977 49.588l.037.044c12.853 14.785 35.024 16.554 49.52 3.952l61.464-53.429c14.497-12.602 15.83-34.803 2.977-49.588l-.037-.044Z"/><path d="m76.811-17.843 8.581-.117 53.05-.928 18.42-.436.032.036 16.868-.014 10.671-.035c9.491-.116 17.811 2.674 24.39 7.456 6.342 4.61 10.967 11.152 13.333 18.845 1.753 5.699 2.242 12.053 1.217 18.755l-1.37 8.89a42.15 42.15 0 0 1-.226 1.692l-2.626 16.99-2.774 17.956-7.684 50.084c-.11.707-.236 1.411-.38 2.112l-1.31 8.482c-2.372 15.273-11.697 26.24-24.049 30.61-7.965 2.818-17.186 2.9-26.624-.402l-1.35-.473c-4.258-1.983-8.308-4.83-11.976-8.519l-.017.208s-23.129-47.44-37.814-64.334C90.49 72.122 48.826 44.981 48.826 44.981c-4.179-4.824-7.063-10.077-8.7-15.446l-.281-1.403c-1.858-9.315-.715-18.008 2.746-25.28.18-.384.367-.764.561-1.141C49.2-9.913 61.357-17.62 76.811-17.843Z"/></g><rect stroke="url(#c)" stroke-width="2" x="1" y="1" width="213" height="297" rx="10"/></g></svg>