<svg width="85" height="85" xmlns="http://www.w3.org/2000/svg"><g fill="none" fill-rule="evenodd"><path d="M0 42.5C0 65.97 19.028 85 42.5 85 65.97 85 85 65.97 85 42.5 85 19.028 65.97 0 42.5 0 19.028 0 0 19.028 0 42.5Z" fill="#28176D" fill-rule="nonzero"/><path d="M37.044 27.037h9.941v19.93h-9.941z" fill="#7B49B6" fill-rule="nonzero"/><path d="m32.1 25.855 8.198-8.894a3.004 3.004 0 0 1 4.404 0l8.199 8.894L57 30.27H28l4.1-4.414Z" fill="#F8C642" fill-rule="nonzero"/><path fill="#FC3A64" fill-rule="nonzero" d="M37 46v1.9h10V46z"/><path fill="#FFF" fill-rule="nonzero" d="M37 42v1.9h10V42z"/><path fill="#FC3A64" fill-rule="nonzero" d="M50.218 46v5.333h-17V46H17v20h51V46z"/><path fill="#F8C642" fill-rule="nonzero" d="M54.9 62.2h-6.8v-6.667h6.8zM65.1 62.2h-6.8v-6.667h6.8z"/><path fill="#FFF" d="M17 66v-6h16v6z"/><path fill="#7B49B6" d="M52 52v-6h16v6z"/><path fill="#F8C642" d="M17 60v-6h24v6z"/></g></svg>